<?xml version="1.0" encoding="UTF-8"?><svg id="Camada_1" xmlns="http://www.w3.org/2000/svg" xmlns:xlink="http://www.w3.org/1999/xlink" viewBox="0 0 463.823 512"><defs><style>.cls-1{fill:url(#Nova_amostra_de_gradiente_1-2);}.cls-2{fill:url(#Nova_amostra_de_gradiente_1);}</style><linearGradient id="Nova_amostra_de_gradiente_1" x1="0" y1="256" x2="463.823" y2="256" gradientTransform="matrix(1, 0, 0, 1, 0, 0)" gradientUnits="userSpaceOnUse"><stop offset="0" stop-color="#ff006c"/><stop offset="1" stop-color="#ff622c"/></linearGradient><linearGradient id="Nova_amostra_de_gradiente_1-2" x1="160.199" y1="388.56" x2="303.694" y2="388.56" xlink:href="#Nova_amostra_de_gradiente_1"/></defs><path class="cls-2" d="M19.411,512c-3.858-1.919-7.954-3.362-11.152-6.49-7.168-7.012-9.377-15.531-7.752-25.165,5.561-32.977,11.153-65.949,16.823-98.908,3.348-19.466,12.145-35.829,28.09-47.918,2.117-1.605,2.954-3.431,2.721-5.969-.244-2.649-.271-5.321-.595-7.959-2.122-17.253,8.616-29.685,26.03-29.74,31.652-.099,63.305-.026,94.958-.035,6.937-.002,7.499-.515,7.558-7.243,.058-6.497-.059-12.995,.047-19.491,.042-2.576-.807-4.334-2.981-5.837-20.302-14.029-33.733-32.821-39.16-57.066-.609-2.722-2.024-3.848-4.868-3.831-4.639,.027-9.347,.529-13.872-1.067-10.605-3.74-17.671-10.821-19.161-22.154-1.674-12.735-1.42-25.602-.169-38.364,1.051-10.717,7.268-18.118,17.09-22.158,3.478-1.43,4.257-3.444,4.23-6.796-.116-14.493-.062-28.987-.044-43.48,.038-31.195,16.738-53.099,46.865-61.511,.795-.222,1.562-.544,2.342-.819h131c15.359,3.768,28.509,10.981,37.898,24.143,7.49,10.498,11.317,22.167,11.348,35.056,.015,6.394-2.866,10.027-7.843,10.112-5.033,.086-8.279-3.219-8.392-9.699-.172-9.828-2.784-18.69-8.683-26.578-9.225-12.336-22.039-17.502-36.906-17.599-35.325-.229-70.657-.386-105.979,.029-27.553,.324-45.187,18.854-45.254,46.482-.045,18.663-.021,37.326,.007,55.99,.005,3.532,7.509,8.916,10.664,7.637,1.865-.756,1.128-2.601,1.135-3.967,.064-12.164,.021-24.329,.049-36.493,.031-13.367,4.304-24.499,16.617-31.384,3.409-1.906,7.09-2.796,10.922-3.286,8.802-1.126,17.639-.856,26.433-.277,6.959,.458,13.071,3.389,18.647,7.709,9.389,7.275,18.359,7.275,27.829-.008,7.187-5.527,15.199-8.071,24.158-8.033,4.666,.02,9.332-.022,13.997,.008,21.36,.137,34.158,12.812,34.408,34.266,.144,12.329,.158,24.664-.039,36.992-.067,4.173,.738,4.923,5.028,3.714,5.51-1.553,7.536-4.198,6.978-9.875-.519-5.281-.214-10.657-.065-15.985,.187-6.656,3.332-10.338,8.456-10.238,4.92,.096,7.709,3.709,7.85,10.176,.011,.5,.066,1.009-.003,1.498-.95,6.679,.565,10.948,7.831,14.074,9.151,3.936,13.581,12.695,13.968,22.677,.426,10.981,.445,22.006-.016,32.984-.402,9.564-4.872,17.361-13.31,22.154-3.779,2.147-4.995,4.681-4.773,8.794,.232,4.304,.137,8.684-.402,12.957-1.019,8.08-5.097,11.996-13.218,13.231-4.605,.7-9.221,1.51-13.858,1.753-3.531,.185-5.725,1.569-7.684,4.477-6.312,9.365-14.436,17.001-23.777,23.289-2.626,1.768-3.846,3.725-3.736,6.957,.221,6.491,.085,12.995,.082,19.494-.002,4.563,1.626,6.735,6.82,6.698,31.159-.223,62.321-.118,93.482-.106,20.167,.008,30.462,10.843,28.173,30.888-.833,7.296,.823,11.707,6.555,16.478,15.223,12.673,21.758,30.074,24.802,49.272,4.822,30.407,10.163,60.732,15.35,91.081,3.058,17.889-1.731,26.887-18.548,34.458H19.411Zm212.164-15.352c57.997,0,115.994,.002,173.991-.006,2.49,0,4.974,.119,7.411-.758,3.31-1.191,4.856-3.596,4.526-6.908-.333-3.341-2.359-5.476-5.875-5.733-2.157-.158-4.329-.149-6.494-.149-90.995-.007-181.991-.005-272.986-.012-2.826,0-5.658,.152-8.438-.659-4.048-1.18-6.379-3.908-6.13-8.015,.245-4.045,2.74-6.786,6.893-7.438,2.121-.333,4.32-.233,6.483-.233,83.829-.01,167.658-.008,251.487-.009,1.5,0,3.005-.091,4.499,.007,2.912,.191,4.145-.995,4.314-4.014,.887-15.788,1.948-31.567,2.929-47.35,.795-12.794,1.561-25.59,2.342-38.385,1.238-20.27,2.587-40.534,3.659-60.813,.391-7.398-2.304-9.954-9.758-9.955-105.661-.023-211.323-.023-316.984,.002-7.415,.002-10.039,2.569-9.728,9.997,.535,12.806,1.328,25.603,2.132,38.396,2.234,35.552,4.621,71.094,6.683,106.656,.259,4.467,1.706,5.811,5.94,5.529,4.143-.276,8.348-.237,12.483,.139,4.324,.393,7.218,3.063,7.39,7.446,.168,4.295-2.19,7.298-6.616,8.093-2.277,.409-4.624,.571-6.941,.588-10.499,.077-20.999,.027-31.497,.101-3.846,.027-6.373,1.82-6.694,5.895-.316,4.007,1.846,6.32,5.542,7.116,2.086,.45,4.294,.454,6.447,.455,57.664,.022,115.328,.018,172.991,.017Zm63.694-264.185c-4.502,.458-7.618,.784-10.737,1.09-3.645,.358-6.308,1.592-8.158,5.32-2.535,5.106-7.089,8.322-12.823,9.486-6.207,1.26-12.482,2.189-18.817,2.135-10.217-.088-18.599-7.502-19.659-17.078-1.218-11.002,4.802-20.184,15.23-22.569,6.483-1.482,13.113-2.219,19.806-2.198,4.005,.013,8.238,.827,10.572,3.713,4.957,6.132,10.861,5.946,17.477,4.511,2.589-.562,5.276-.671,7.918-.99,13.464-1.627,13.357-1.658,17.138-14.732,4.877-16.866,2.067-34.104,2.724-51.172,.059-1.546-.876-2.23-2.41-2.639-9.647-2.567-11.377-4.891-11.386-14.992-.015-16.993,.066-33.986-.049-50.978-.061-9.074-5.998-14.903-15.08-15.112-4.163-.096-8.354,.262-12.489-.095-8.401-.726-15.409,1.732-22.238,6.823-11.648,8.684-28.002,8.978-39.817,.376-7.642-5.563-15.459-8.035-24.659-7.179-2.808,.261-5.661,.032-8.493,.043-12.053,.051-17.567,5.623-17.584,17.833-.024,16.993,.032,33.985-.036,50.978-.027,6.627-3.093,11.169-8.976,11.979-4.096,.564-4.302,2.69-4.285,5.762,.052,9.496,.352,19.007-.064,28.484-.689,15.68,3.95,29.884,13.083,42.09,21.327,28.5,50.238,40.202,85.403,34.926,18.411-2.762,34.174-11.544,48.41-25.816Zm119.726,119.664c-1.002,3.748-1.149,6.885-1.316,10.046-.709,13.461-1.473,26.919-2.302,40.372-1.197,19.429-2.406,38.857-3.758,58.275-.286,4.103,.719,5.802,5.283,6.154,12.321,.948,20.907,10.866,20.838,23.214-.038,6.768,2.042,8.079,8.342,5.255,4.482-2.009,6.51-6.482,5.557-12.084-5.558-32.639-11.048-65.289-16.675-97.915-2.125-12.324-6.202-23.808-15.969-33.317ZM56.276,457.329c-.29-3.313-.734-7.281-.971-11.262-1.769-29.711-3.495-59.424-5.242-89.136-.076-1.299,.281-3.032-1.142-3.57-1.491-.563-2.299,1.086-3.092,2.052-6.256,7.617-10.322,16.339-11.994,26.006-5.921,34.239-11.706,68.501-17.439,102.772-1.238,7.402,3.625,12.536,11.183,12.463,2.442-.023,2.962-.791,2.827-3.27-.849-15.595,6.668-24.713,21.905-26.55,2.955-.356,4.217-1.396,3.985-4.338-.117-1.488-.02-2.994-.02-5.169Zm175.36-167.527c11.659,0,23.32-.118,34.976,.065,3.966,.062,5.91-.968,5.499-5.323-.327-3.467-.063-6.989-.077-10.487-.025-6.182-.012-6.129-5.667-4.134-12.528,4.421-25.454,6.679-38.722,5.964-10.658-.575-21.165-2.398-31.14-6.476-3.292-1.346-4.124,.106-4.097,3.141,.038,4.159,.293,8.386-.331,12.463-.636,4.159,1.074,4.858,4.58,4.825,11.658-.109,23.318-.041,34.977-.039Zm115.922-160.722c-3.342,7.619-3.329,7.696-12.179,9.146-2.378,.39-3.624,1.28-3.617,3.781,.031,11.828,.013,23.657,.027,35.485,.001,1.195,.22,2.252,1.491,2.895,6.965,3.523,18.54-2.642,18.791-10.455,.353-10.983,.129-21.986,.035-32.98-.029-3.354-1.751-5.883-4.548-7.873Zm-230.704-.542c-3.898,3.315-5.24,6.638-5.211,10.702,.06,8.638,.398,17.298-.091,25.909-.628,11.061,6.065,16.314,16.829,15.561,2.815-.197,3.766-1.306,3.751-3.976-.063-11.462-.056-22.924-.015-34.386,.01-2.63-1-4.052-3.756-4.116-5.941-.139-10.31-2.431-11.507-9.694Zm129.132,106.039c4.568-.64,8.848-1.22,13.121-1.846,2.46-.36,4.082-1.7,3.843-4.316-.263-2.884-2.394-3.973-4.957-3.746-4.299,.381-8.578,1.033-12.85,1.67-2.592,.387-4.572,1.795-4.079,4.625,.455,2.611,2.533,3.751,4.922,3.612Z"/><path class="cls-1" d="M303.694,388.499c.045,39.789-31.983,71.828-71.781,71.803-39.428-.024-71.662-32.153-71.714-71.481-.052-39.41,32.551-72.06,71.898-72.003,39.289,.057,71.553,32.358,71.597,71.681Zm-72.493,55.414c35.268,.146,61.979-31.168,55.534-64.564-4.482-23.226-18.399-38.823-41.436-44.432-22.931-5.583-42.692,1.283-57.279,20.066-12.079,15.554-14.398,33.216-8.43,51.986,1.105,3.475,2.376,3.816,4.963,1.106,4.178-4.376,6.81-9.367,7.552-15.389,.976-7.922,1.919-15.852,3.108-23.744,1.057-7.017,4.821-12.357,11.881-13.915,10.056-2.219,20.254-3.884,30.459-5.3,6.128-.851,10.842,2.202,13.368,7.489,2.167,4.536,1.066,9.408-3.38,14.031-3.924,4.081-8.105,7.92-11.931,12.088-1.68,1.831-5.913,3.738-2.767,6.658,2.859,2.654,4.903-1.269,6.799-3.055,4.484-4.223,8.651-8.787,13.2-12.935,4.25-3.874,8.996-4.352,13.326-1.89,5.041,2.866,7.805,7.95,6.951,13.274-1.474,9.197-2.992,18.39-4.671,27.551-1.531,8.355-6.469,13.119-14.993,14.448-7.228,1.127-14.492,2.038-21.755,2.913-6.294,.758-11.926,2.757-16.509,7.386-2.367,2.391-1.821,3.387,1.186,4.253,5.176,1.49,10.422,2.127,14.821,1.973Zm-3.101-74.64l-1.394-1.521c-3.268,.533-6.523,1.193-9.809,1.568-4.001,.456-5.968,2.053-6.415,6.538-1.736,17.398-2.873,35.164-18.323,47.316-1.153,.907-1.375,2.052-.527,3.514,2.838,4.894,6.126,5.503,10.038,1.538,7.612-7.715,16.486-12.733,27.476-13.803,6.609-.643,13.165-1.829,19.763-2.614,2.102-.25,3.518-1.038,3.889-3.133,.772-4.353,1.441-8.724,2.152-13.088-2.982,1.458-4.884,3.717-7.001,5.751-8.031,7.716-19.259,7.989-26.898,.739-7.651-7.262-7.864-18.519-.252-26.878,2.087-2.292,4.849-3.969,7.301-5.928Z"/></svg>