<?xml version="1.0" encoding="UTF-8"?><svg id="Camada_1" xmlns="http://www.w3.org/2000/svg" xmlns:xlink="http://www.w3.org/1999/xlink" viewBox="0 0 511.508 511.693"><defs><style>.cls-1{fill:url(#Nova_amostra_de_gradiente_1-2);}.cls-2{fill:url(#Nova_amostra_de_gradiente_1-3);}.cls-3{fill:url(#Nova_amostra_de_gradiente_1-4);}.cls-4{fill:url(#Nova_amostra_de_gradiente_1-7);}.cls-5{fill:url(#Nova_amostra_de_gradiente_1-5);}.cls-6{fill:url(#Nova_amostra_de_gradiente_1-6);}.cls-7{fill:url(#Nova_amostra_de_gradiente_1);}</style><linearGradient id="Nova_amostra_de_gradiente_1" x1="0" y1="255.846" x2="511.508" y2="255.846" gradientTransform="matrix(1, 0, 0, 1, 0, 0)" gradientUnits="userSpaceOnUse"><stop offset="0" stop-color="#ff006c"/><stop offset="1" stop-color="#ff622c"/></linearGradient><linearGradient id="Nova_amostra_de_gradiente_1-2" x1="151.922" y1="224.254" x2="217.074" y2="224.254" xlink:href="#Nova_amostra_de_gradiente_1"/><linearGradient id="Nova_amostra_de_gradiente_1-3" x1="261.708" y1="224.254" x2="326.859" y2="224.254" xlink:href="#Nova_amostra_de_gradiente_1"/><linearGradient id="Nova_amostra_de_gradiente_1-4" x1="371.493" y1="224.254" x2="436.645" y2="224.254" xlink:href="#Nova_amostra_de_gradiente_1"/><linearGradient id="Nova_amostra_de_gradiente_1-5" x1="261.708" y1="334.039" x2="326.859" y2="334.039" xlink:href="#Nova_amostra_de_gradiente_1"/><linearGradient id="Nova_amostra_de_gradiente_1-6" x1="371.493" y1="334.039" x2="436.647" y2="334.039" xlink:href="#Nova_amostra_de_gradiente_1"/><linearGradient id="Nova_amostra_de_gradiente_1-7" x1="81.538" y1="389.93" x2="163.101" y2="389.93" xlink:href="#Nova_amostra_de_gradiente_1"/></defs><path class="cls-7" d="M137.239,511.693h-29.942c-2.596-.54-5.182-1.131-7.789-1.612C42.031,499.475-6.128,446.145,.636,378.151c4.542-45.658,28.923-78.763,70.208-99.037,4.085-2.006,5.485-4.384,5.43-8.796-.212-17.126-.085-34.255-.084-51.384,.002-44.733,.006-89.466,.006-134.199,0-30.176,24.256-45.931,44.637-44.63,10.765,.687,21.61,.125,32.42,.119q7.486-.004,7.634-7.319c.211-10.416,4.118-19.167,12.34-25.607,10.352-8.108,21.936-9.464,33.783-4.051,12.75,5.825,18.524,16.568,19.152,30.318,.303,6.629,.319,6.655,6.887,6.656,40.077,.009,80.154,.014,120.23-.002,8.87-.004,9.025,1.043,9.321-8.725,.665-21.936,22.569-36.73,43.207-29.488,13.45,4.72,21.335,16.181,21.895,32.476,.146,4.258,1.516,5.887,5.873,5.813,12.136-.205,24.279,.023,36.417-.093,8.809-.084,16.683,2.585,23.858,7.508,9.214,6.321,14.454,15.392,17.659,25.837V406.897c-10.266,25.751-21.394,33.322-48.978,33.322-73.792,0-147.583,.046-221.374-.1-5.082-.01-7.99,1.302-10.454,6.09-11.826,22.983-29.488,40.342-52.334,52.431-12.922,6.838-26.849,10.499-41.129,13.052ZM294.95,162.762c-62.7,0-125.4,0-188.101,0-1.497,0-2.999,.084-4.489-.008-3.407-.211-4.768,1.338-4.763,4.73,.052,32.597,.048,65.195,.006,97.792-.005,3.553,1.271,4.555,4.897,3.956,11.701-1.934,23.491-2.192,35.26-.556,70.705,9.828,117.01,73.582,104.643,144.028q-1.188,6.766,6.025,6.779c72.18,.003,144.36,.008,216.54-.002,17.858-.002,26.185-8.392,26.187-26.375,.008-74.176,.004-148.352,.003-222.528q0-7.806-7.61-7.816c-62.866-.003-125.733-.001-188.599-.002Zm-.463-20.735c63.181,0,126.361,.002,189.542-.003q7.116,0,7.129-7.292c.007-16.128,.026-32.255-.006-48.383-.032-16.619-8.68-25.335-25.157-25.382-9.976-.029-19.952-.009-29.928-.006q-7.811,.002-8.349,7.737c-1.38,19.828-15.279,32.718-34.669,32.153-17.141-.5-30.405-14.899-30.45-33.654-.013-5.301-2.091-6.333-6.829-6.317-40.568,.141-81.137,.079-121.706,.082q-7.436,0-7.948,7.634c-1.529,22.812-21.579,37.436-42.403,30.927-13.822-4.32-22.577-16.645-22.822-32.224-.052-3.273,.274-6.436-4.631-6.376-12.302,.15-24.618-.261-36.907,.164-13.369,.462-21.683,9.533-21.723,22.941-.052,16.959-.023,33.918-.012,50.877,.005,7.105,.025,7.119,7.326,7.12,63.181,.004,126.361,.002,189.542,.002ZM122.183,288.542c-56.719,1.026-101.225,45.15-101.095,101.589,.13,56.423,44.624,100.865,101.009,100.97,56.309,.106,101.277-44.174,101.326-101.135,.049-56.76-44.787-100.522-101.24-101.425ZM182.336,50.638c0,5.974-.153,11.952,.041,17.92,.214,6.604,4.808,11.216,10.873,11.307,6.145,.092,11.335-4.798,11.443-11.404,.195-11.945,.203-23.897-.007-35.841-.116-6.584-5.393-11.46-11.532-11.302-6.07,.156-10.579,4.763-10.784,11.4-.184,5.968-.039,11.946-.034,17.92Zm201.604-.551c0,6.14-.149,12.284,.04,18.418,.204,6.624,4.753,11.23,10.822,11.358,6.144,.129,11.38-4.751,11.493-11.348,.203-11.944,.203-23.897,0-35.841-.112-6.597-5.339-11.479-11.483-11.358-6.066,.119-10.62,4.732-10.835,11.349-.188,5.802-.039,11.614-.039,17.422Z"/><path class="cls-1" d="M184.836,191.942c17.804,.069,32.366,14.72,32.238,32.435-.13,17.984-14.778,32.272-32.997,32.188-17.857-.083-32.219-14.577-32.154-32.451,.066-18.058,14.577-32.243,32.913-32.172Z"/><path class="cls-2" d="M294.022,256.566c-17.918-.048-32.302-14.422-32.314-32.291-.013-18.07,14.477-32.374,32.753-32.333,17.862,.04,32.359,14.481,32.398,32.275,.04,17.903-14.674,32.398-32.837,32.349Z"/><path class="cls-3" d="M404.414,191.942c17.804,.073,32.366,14.731,32.231,32.442-.138,17.988-14.782,32.266-33.004,32.181-17.855-.084-32.215-14.584-32.147-32.458,.069-18.058,14.584-32.24,32.92-32.165Z"/><path class="cls-5" d="M293.93,366.351c-17.881-.068-32.254-14.513-32.222-32.383,.032-18.063,14.536-32.3,32.845-32.24,17.831,.058,32.364,14.619,32.306,32.367-.059,17.951-14.734,32.326-32.929,32.256Z"/><path class="cls-6" d="M403.98,366.352c-17.982-.013-32.392-14.26-32.486-32.119-.095-18.084,14.363-32.51,32.58-32.505,17.925,.004,32.352,14.224,32.57,32.103,.218,17.816-14.566,32.534-32.664,32.522Z"/><path class="cls-4" d="M111.898,412.449c0-5.156-.149-10.318,.052-15.466,.133-3.41-.875-5.71-4.199-7.026-2.147-.85-4.107-2.178-6.138-3.315-12.552-7.029-18.031-17.871-16.493-32.001,1.466-13.462,8.517-23.343,21.066-28.63,4.135-1.742,5.954-3.681,5.88-8.309-.096-5.965,4.44-9.947,10.2-9.946,5.756,0,10.364,3.998,10.186,9.948-.149,4.992,1.765,7.157,6.361,8.329,4.016,1.024,7.695,3.146,11.09,5.585,5.056,3.631,6.432,9.567,3.465,14.449-2.957,4.866-8.839,6.287-14.385,3.458-.888-.453-1.74-.977-2.601-1.48-2.411-1.407-3.751-.967-3.742,2.07,.025,7.983,.096,15.968-.025,23.949-.053,3.515,2.342,4.405,4.899,5.354,11.743,4.361,20.248,11.998,23.971,24.229,5.713,18.768-4.168,40.108-22.74,48.469-4.358,1.962-6.489,4.051-6.262,9.121,.299,6.671-4.167,10.908-10.299,10.868-5.945-.039-10.19-4.082-10.16-10.535,.021-4.469-1.732-6.064-5.989-6.681-6.835-.991-12.986-4.038-18.695-7.891-5.796-3.912-7.39-9.816-4.147-15.017,3.104-4.978,8.947-6.171,14.898-3.09,2.948,1.526,5.873,3.126,8.929,4.407,3.131,1.313,5.261,.639,4.877-3.384-.016-.165,0-.332,0-.499,0-5.655,0-11.31,0-16.964Zm20.748,3.383c0,3.99-.023,7.979,.011,11.969,.014,1.643,.066,3.275,2.475,1.756,8.3-5.231,9.07-20.817,1.275-26.829-.869-.671-1.711-1.861-3.023-1.096-1.009,.588-.723,1.769-.731,2.731-.029,3.823-.012,7.647-.007,11.47Zm-20.756-68.754c-6.368,5.81-7.711,13.735-3.796,18.014,.759,.829,1.549,1.952,2.891,1.402,1.134-.464,.887-1.676,.892-2.631,.028-5.263,.013-10.527,.013-16.785Z"/></svg>