<?xml version="1.0" encoding="UTF-8"?><svg id="Camada_1" xmlns="http://www.w3.org/2000/svg" xmlns:xlink="http://www.w3.org/1999/xlink" viewBox="0 0 495.746 431.863"><defs><style>.cls-1{fill:url(#Nova_amostra_de_gradiente_1-2);}.cls-2{fill:url(#Nova_amostra_de_gradiente_1-3);}.cls-3{fill:url(#Nova_amostra_de_gradiente_1-4);}.cls-4{fill:url(#Nova_amostra_de_gradiente_1-7);}.cls-5{fill:url(#Nova_amostra_de_gradiente_1-5);}.cls-6{fill:url(#Nova_amostra_de_gradiente_1-6);}.cls-7{fill:url(#Nova_amostra_de_gradiente_1);}</style><linearGradient id="Nova_amostra_de_gradiente_1" x1="0" y1="215.931" x2="495.746" y2="215.931" gradientTransform="matrix(1, 0, 0, 1, 0, 0)" gradientUnits="userSpaceOnUse"><stop offset="0" stop-color="#ff006c"/><stop offset="1" stop-color="#ff622c"/></linearGradient><linearGradient id="Nova_amostra_de_gradiente_1-2" x1="31.943" y1="136.079" x2="431.963" y2="136.079" xlink:href="#Nova_amostra_de_gradiente_1"/><linearGradient id="Nova_amostra_de_gradiente_1-3" x1="183.66" y1="135.746" x2="280.148" y2="135.746" xlink:href="#Nova_amostra_de_gradiente_1"/><linearGradient id="Nova_amostra_de_gradiente_1-4" x1="63.811" y1="136.061" x2="80.58" y2="136.061" xlink:href="#Nova_amostra_de_gradiente_1"/><linearGradient id="Nova_amostra_de_gradiente_1-5" x1="95.77" y1="136.098" x2="112.555" y2="136.098" xlink:href="#Nova_amostra_de_gradiente_1"/><linearGradient id="Nova_amostra_de_gradiente_1-6" x1="351.264" y1="136.074" x2="368.019" y2="136.074" xlink:href="#Nova_amostra_de_gradiente_1"/><linearGradient id="Nova_amostra_de_gradiente_1-7" x1="383.229" y1="136.099" x2="399.984" y2="136.099" xlink:href="#Nova_amostra_de_gradiente_1"/></defs><path class="cls-7" d="M263.865,431.86c-68.364,0-136.728,.006-205.092-.003-17.313-.002-26.82-9.51-26.825-26.817-.012-42.083-.002-84.166-.006-126.249q0-6.567-6.526-6.62C10.059,272.045,.028,262.156,.022,246.926-.008,173.073-.006,99.22,.02,25.367,.026,9.976,9.938,.019,25.278,.016,163.004-.005,300.73-.005,438.456,.015c15.295,.002,25.317,10.014,25.331,25.292,.039,42.582,.013,85.164,.018,127.745q0,6.587,6.507,6.639c15.561,.124,25.413,10.032,25.417,25.721,.022,73.52,.021,147.041,.002,220.561-.004,15.937-9.897,25.872-25.776,25.877-68.697,.021-137.393,.009-206.09,.01Zm-32.346-176.358c67.678,0,135.357,.003,203.035-.003,10.272,0,12.574-2.317,12.575-12.648,.006-71.17,.005-142.341,0-213.511,0-10.346-2.297-12.663-12.557-12.664-135.024-.005-270.048-.004-405.073,0-10.608,0-12.82,2.227-12.821,12.896-.004,70.838-.004,141.676-.001,212.513,0,11.368,2.031,13.416,13.303,13.417,67.18,.003,134.359,.001,201.539,.001Zm31.806,159.687c68.019,0,136.038,.006,204.058-.007,9.014-.002,11.675-2.624,11.677-11.542,.015-71.844,.013-143.689-.016-215.533,0-1.973-.083-4.031-.631-5.902-1.316-4.489-6.249-6.839-11.823-5.788-4.782,.902-2.682,4.8-2.687,7.29-.128,62.032-.147,124.064-.01,186.096,.01,4.727-1.274,6.32-6.144,6.286-11.597-.081-17.822,6.246-17.793,17.974,.011,4.563-1.406,5.945-5.968,5.941-113.421-.106-226.842-.105-340.262-.002-4.517,.004-6.012-1.302-6-5.909,.03-11.785-6.171-18.086-17.807-18.002-4.894,.035-6.158-1.598-6.129-6.305,.184-29.601,.112-59.204,.081-88.807-.01-9.79,1.054-8.756-8.818-8.797-6.424-.027-6.436,.01-6.436,6.698-.004,41.078-.005,82.155,0,123.233,.001,10.962,2.127,13.076,13.146,13.076,67.188,.003,134.375,.002,201.563,0Zm26.894-143.015c-17.623,0-35.247-.014-52.87,.009-4.946,.007-5.72,1.044-3.635,5.515,3.14,6.733,8.742,9.723,16.047,9.733,10.142,.014,20.284-.043,30.425,.029,13.413,.096,24.787,7.931,29.794,20.402,4.8,11.953,1.852,25.769-7.49,34.967-7.068,6.96-15.661,9.819-25.445,9.155-3.658-.248-5.328,1.072-4.884,4.817,.117,.984,.016,1.993,.015,2.991-.01,8.189-.01,8.22-8.024,8.185-9.476-.041-8.587,.786-8.64-8.561-.041-7.328-.016-7.328-7.742-7.406-15.401-.155-27.872-10.043-31.432-24.922-1.667-6.969-1.092-7.688,6.187-7.709,1.829-.005,3.667,.125,5.484-.019,2.783-.221,4.109,.967,4.958,3.645,2.655,8.373,7.838,12.197,16.575,12.304,9.642,.119,19.286,.067,28.928,.001,3.538-.024,6.932-.79,9.883-2.913,5.803-4.176,8.086-10.523,6.14-17.041-1.948-6.525-7.866-11.022-15.47-11.174-10.304-.206-20.615-.028-30.923-.086-16.641-.094-29.671-11.076-32.236-27.522-.523-3.355-1.587-4.529-4.953-4.46-8.808,.18-17.626,.206-26.432-.01-3.535-.087-5.055,1.268-5.738,4.61-2.217,10.84-2.986,21.736-1.123,32.664,8.437,49.485,54.074,81.232,103.281,71.944,47.099-8.89,78.652-56.849,68.302-103.655-.912-4.125-2.737-5.659-7.111-5.596-17.287,.248-34.58,.102-51.871,.102Zm31.151,110.511c1.439,.37,1.754,.522,2.069,.522,32.251,.021,64.501-.008,96.752,.099,3.133,.01,4.3-1.508,5.346-4.067,3.295-8.067,9.025-14.019,17.069-17.253,3.869-1.555,4.616-3.827,4.594-7.569-.137-23.938-.069-47.877-.068-71.816,0-10.658-.001-10.461-10.325-10.524-4.126-.025-5.071,1.553-5.004,5.302,.185,10.47,.177,20.947,.034,31.418-.175,12.872,2.3,11.042-11.888,11.329-3.795,.077-4.848-1.486-4.801-5.028,.144-10.97,.12-21.944,.027-32.915-.096-11.324,1.697-9.721-10.09-10.091-4.374-.137-5.302,1.654-5.225,5.574,.203,10.303,.179,20.614,.04,30.919-.177,13.132,2.254,11.209-11.676,11.556-4.101,.102-5.076-1.631-5.018-5.33,.16-10.138,.052-20.281,.051-30.421,0-12.443,0-12.285-12.394-12.298-4.517-.004-5.148,1.506-4.424,5.687,4.393,25.382,.052,49.241-13.157,71.432-7.94,13.339-18.473,24.25-31.91,33.474Zm-115.782-.064c-4.512-3.762-9.204-7.142-13.274-11.154-26.509-26.135-37.076-57.599-30.926-94.443,.576-3.454-.081-5.1-3.849-4.876-2.651,.158-5.336,.216-7.976-.018-3.862-.342-5.306,1.029-5.217,5.06,.236,10.637,.172,21.283,.054,31.923-.139,12.482,1.958,10.693-11.215,11.026-4.049,.102-5.59-1.172-5.502-5.366,.226-10.803,.155-21.615,.049-32.423-.113-11.527,1.874-9.947-10.423-10.236-3.708-.087-4.948,1.197-4.884,4.89,.185,10.639,.167,21.284,.036,31.924-.157,12.745,2.113,10.88-11.527,11.206-3.913,.094-5.248-1.269-5.179-5.176,.193-10.971,.136-21.948,.042-32.922-.096-11.158,1.72-9.604-10.24-9.938-4.048-.113-5.093,1.384-5.073,5.218,.13,26.105,.113,52.212,.009,78.317-.012,3.119,.97,4.786,3.919,5.974,8.055,3.243,14.111,8.867,17.344,16.964,1.497,3.749,3.587,4.785,7.466,4.765,30.594-.153,61.19-.077,91.785-.109,1.429-.001,2.953,.446,4.582-.608Z"/><path class="cls-1" d="M231.996,240.234c-56.368,0-112.735,.003-169.103-.003-6.783,0-6.783-.019-7.005-6.715-.353-10.622-6.658-16.902-17.294-17.228-6.615-.203-6.644-.203-6.645-6.573-.008-49.052-.008-98.103,0-147.155,.001-6.481,.027-6.481,6.542-6.676,10.93-.327,17.391-6.581,17.272-17.63-.055-5.107,1.566-6.419,6.536-6.414,110.407,.128,220.815,.128,331.222,0,4.961-.006,6.533,1.3,6.542,6.406,.027,15.786,9.756,25.421,25.615,25.515,4.682,.028,6.302,1.244,6.285,6.143-.165,46.723-.157,93.447-.009,140.17,.015,4.676-1.182,6.364-6.104,6.326-11.627-.09-17.919,6.226-17.813,17.927,.046,5.063-1.907,5.995-6.44,5.985-56.534-.125-113.068-.082-169.602-.081Zm.075-16.692c49.055-1.166,87.182-38.794,87.057-87.635-.127-49.266-38.794-87.181-87.401-87.061-49.146,.121-87.184,38.768-87.067,87.404,.118,48.983,38.612,86.382,87.411,87.292Zm-57.66-.199c-30.222-22.337-46.685-50.764-46.597-87.654,.087-36.698,16.822-64.91,46.767-87.073-33.99,0-66.578,.028-99.165-.049-2.856-.007-4.083,1.287-5.077,3.721-3.432,8.4-9.394,14.481-17.783,17.914-2.919,1.195-4.004,2.764-3.997,5.916,.089,39.914,.1,79.829-.016,119.744-.01,3.433,1.3,4.989,4.312,6.229,7.865,3.24,13.75,8.808,16.936,16.721,1.485,3.688,3.48,4.864,7.42,4.843,30.767-.165,61.535-.089,92.302-.099,1.281,0,2.561-.108,4.901-.214ZM289.113,48.609c30.372,22.411,46.929,50.778,46.879,87.649-.049,36.768-16.679,65.065-46.381,86.958,1.46,.185,2.081,.332,2.703,.332,31.914,.012,63.828-.023,95.742,.068,3.022,.009,4.41-1.208,5.474-3.881,3.293-8.276,9.216-14.204,17.389-17.605,3.303-1.375,4.355-3.217,4.344-6.717-.115-36.9-.112-73.802-.003-110.702,.01-3.342-.912-5.019-4.222-6.106-12.84-4.216-21.593-12.855-25.774-25.709-1.188-3.653-3.128-4.373-6.527-4.344-15.291,.133-30.584,.058-45.876,.057-14.106,0-28.211,0-43.749,0Z"/><path class="cls-2" d="M229.904,144.413c-4.823,0-9.647,.047-14.47-.008-17.893-.204-31.768-14.298-31.775-32.239-.007-17.972,13.836-32.082,31.704-32.311,1.33-.017,2.671-.117,3.99,.004,3.355,.307,4.532-1.34,4.214-4.455-.017-.165-.004-.332,0-.499,.244-11.503,2.045-12.888,13.687-11.014,2.427,.391,2.829,1.71,2.984,3.732,.289,3.773-1.579,8.377,.902,11.12,2.569,2.841,7.264,.77,11.005,1.198,13.623,1.56,25.774,13.34,27.799,26.948,.602,4.045-.55,6.08-4.925,5.614-1.48-.158-3.009-.17-4.485,.008-4.537,.546-7.005-.721-8.494-5.723-1.976-6.639-7.625-10.007-14.546-10.173-10.306-.248-20.628-.283-30.933-.008-9.37,.25-16.275,7.223-16.148,15.675,.125,8.308,7.277,15.2,16.49,15.4,10.307,.224,20.623,.018,30.935,.085,18.335,.118,32.294,14.064,32.31,32.204,.015,18.178-13.898,32.167-32.177,32.351-7.723,.078-7.697,.078-7.738,7.416-.052,9.336,.836,8.511-8.656,8.551-7.998,.034-7.998,.004-8.008-8.207-.001-.832-.097-1.676,.015-2.493,.576-4.226-1.346-5.574-5.409-5.306-10.632,.7-19.558-3.021-26.67-10.971-4.22-4.717-6.62-10.305-7.668-16.51-.593-3.507,.5-5.477,4.434-5.127,1.65,.147,3.343,.178,4.984-.016,4.532-.536,7.022,.697,8.507,5.71,1.971,6.65,7.626,10.011,14.538,10.184,10.306,.257,20.628,.284,30.932,.012,9.127-.241,16.311-7.501,16.158-15.711-.155-8.325-7.306-15.089-16.521-15.382-5.649-.179-11.309-.033-16.964-.033v-.026Z"/><path class="cls-3" d="M80.533,136.28c0,6.642-.066,13.285,.031,19.926,.042,2.905-1.021,4.229-4.058,4.195-15.41-.171-12.366,1.65-12.588-11.556-.179-10.624,.083-21.256-.093-31.881-.063-3.801,1.095-5.339,5.099-5.242,13.748,.332,11.379-1.495,11.614,11.107,.084,4.482,.013,8.967,.013,13.45h-.018Z"/><path class="cls-5" d="M95.822,135.747c.003-6.31,.126-12.624-.046-18.929-.095-3.48,.877-5.163,4.734-5.082,14.354,.304,11.757-1.649,11.949,11.739,.15,10.459-.099,20.925,.092,31.383,.072,3.917-.93,5.716-5.252,5.6-13.534-.364-11.241,1.524-11.468-11.261-.08-4.482-.013-8.967-.01-13.45Z"/><path class="cls-6" d="M367.975,136.586c0,6.476-.093,12.954,.04,19.427,.065,3.188-1.164,4.446-4.376,4.399-14.92-.22-12.074,1.688-12.285-11.873-.166-10.625,.076-21.256-.083-31.881-.055-3.647,1.223-4.995,4.9-4.92,14.059,.285,11.554-1.556,11.807,11.398,.087,4.482,.014,8.967,.014,13.45h-.016Z"/><path class="cls-4" d="M383.273,136.088c0-6.642,.092-13.286-.04-19.925-.063-3.186,1.161-4.448,4.374-4.4,14.922,.22,12.076-1.688,12.287,11.871,.166,10.625-.076,21.256,.083,31.881,.055,3.645-1.219,4.997-4.898,4.922-14.061-.285-11.554,1.556-11.809-11.396-.085-4.316-.013-8.635-.013-12.952h.016Z"/></svg>