<?xml version="1.0" encoding="UTF-8"?><svg id="Camada_1" xmlns="http://www.w3.org/2000/svg" xmlns:xlink="http://www.w3.org/1999/xlink" viewBox="0 0 652.243 254.599"><defs><style>.cls-1{fill:url(#Gradiente_sem_nome_31);}</style><linearGradient id="Gradiente_sem_nome_31" x1="-1009.317" y1="150.49" x2="637.585" y2="150.49" gradientTransform="translate(0 277.79) scale(1 -1)" gradientUnits="userSpaceOnUse"><stop offset=".606" stop-color="#ff036f"/><stop offset="1" stop-color="#ff6028"/></linearGradient></defs><path class="cls-1" d="M535.239,254.571c-27.604-.038-47.624-5.313-66.312-15.808-45.765-25.701-91.607-51.266-137.289-77.112-4.254-2.407-7.195-2.125-11.269,.176-45.158,25.508-90.447,50.785-135.67,76.179-75.58,42.44-168.125-.271-182.808-85.565C-11.472,74.813,47.739,3.283,123.824,.138c23.063-.953,44.155,6.757,64.702,15.991,38.778,17.427,74.131,40.723,109.334,64.238,7.936,5.302,15.925,10.547,23.593,16.217,3.48,2.574,5.842,2.251,9.263-.119,31.55-21.862,63.315-43.41,96.866-62.169,17.756-9.927,35.877-19.114,55.09-25.984,51.816-18.53,96.291-5.445,133.495,32.946,43.217,44.596,48.08,115.284,12.022,163.314-24.613,32.784-58.163,48.93-92.95,49.998h0ZM123.152,214.896c13.561,.025,26.435-3.022,38.237-9.596,44.045-24.534,87.95-49.316,131.999-73.842,4.473-2.491,3.5-3.633,.048-5.978-26.776-18.191-53.626-36.264-81.647-52.523-16.882-9.795-34.123-18.912-52.437-25.795-11.677-4.389-23.535-8.323-36.304-7.232-36.331,3.103-67.571,28.438-78.884,63.854-17.801,55.728,21.659,111.245,78.988,111.112h0Zm405.687-.074c28.349-.778,51.449-12.119,68.151-35.1,25.486-35.066,18.573-86.889-15.755-117.067-25.002-21.98-53.305-29.354-85.4-16.803-9.668,3.78-19.235,7.757-28.503,12.426-37.923,19.104-72.893,42.961-108.004,66.609-4.582,3.086-4.449,4.378,.318,7.03,43.335,24.105,86.548,48.426,129.832,72.622,12.185,6.812,25.301,10.289,39.36,10.283h.001Z"/></svg>