<?xml version="1.0" encoding="UTF-8"?><svg id="Camada_1" xmlns="http://www.w3.org/2000/svg" xmlns:xlink="http://www.w3.org/1999/xlink" viewBox="0 0 440.449 440.105"><defs><style>.cls-1{fill:url(#Nova_amostra_de_gradiente_1-2);}.cls-2{fill:url(#Nova_amostra_de_gradiente_1);}</style><linearGradient id="Nova_amostra_de_gradiente_1" x1="0" y1="220.053" x2="440.449" y2="220.053" gradientTransform="matrix(1, 0, 0, 1, 0, 0)" gradientUnits="userSpaceOnUse"><stop offset="0" stop-color="#ff006c"/><stop offset="1" stop-color="#ff622c"/></linearGradient><linearGradient id="Nova_amostra_de_gradiente_1-2" x1="183.541" y1="219.928" x2="256.586" y2="219.928" xlink:href="#Nova_amostra_de_gradiente_1"/></defs><path class="cls-2" d="M391.149,54.286c.007,9.314,.099,18.629-.042,27.941-.051,3.396,1.112,4.794,4.617,4.714,7.314-.168,14.637-.139,21.953-.015,9.397,.159,16.808,3.843,20.8,12.761,3.854,8.61,1.973,18.366-4.899,25.334-10.86,11.013-21.762,21.988-32.836,32.785-2.978,2.903-3.839,5.522-2.583,9.651,9.19,30.205,10.617,60.933,3.504,91.62-13.135,56.673-45.436,98.959-97.167,126.086-28.164,14.769-58.263,21.21-89.908,20.421-17.522-.437-34.751-3.284-51.334-9.112-4.625-1.625-7.537-.721-10.878,2.749-10.957,11.379-22.25,22.436-33.458,33.571-10.213,10.146-23.877,9.579-33.999-.72-16.642-16.933-33.617-33.539-50.441-50.293-9.178-9.14-18.43-18.209-27.47-27.484-7.082-7.265-8.872-16.088-5.025-25.317,3.911-9.384,11.647-13.643,21.87-13.434,6.65,.136,13.316-.212,19.954,.104,4.495,.214,5.175-1.657,5.713-5.771,1.789-13.667-3.679-25.717-7.373-38.21-10.629-35.945-10.164-71.831,1.173-107.5,12.275-38.619,34.848-69.983,67.537-93.941,26.723-19.586,56.657-31.181,89.571-34.87,27.177-3.046,53.752,.14,79.628,8.844,4.216,1.418,5.07,.541,5.098-3.661,.048-7.253-1.091-14.595,1.731-21.711C291.704,6.679,300.97,.086,314.078,.044c16.133-.052,32.266-.067,48.399,.003,16.445,.071,28.517,12.226,28.653,28.792,.07,8.482,.012,16.965,.019,25.447Zm-235.8,228.688c0,11.037,.123,19.856-.066,28.668-.067,3.122,1.038,4.054,4.019,4.008,8.148-.126,16.305-.193,24.45,.023,10.67,.283,20.358,9.394,20.544,20.003,.098,5.596,2.734,6.639,7.287,6.877,35.284,1.846,66.341-8.472,92.243-32.711,27.142-25.399,39.958-56.965,39.118-94.134-.08-3.54-1.295-4.483-4.782-4.311-6.259,.309-11.527-2.056-16.059-6.616-26.264-26.428-52.602-52.783-79.032-79.044-6.706-6.663-8.636-14.427-6.285-23.27,.863-3.248,.064-3.928-3.022-4.288-17.791-2.073-35.059-.098-52.135,5.322-51.05,16.203-86.59,66.969-84.137,120.417,.172,3.743,1.585,4.878,5.134,4.805,7.981-.165,15.968-.095,23.951-.024,14.95,.132,26.522,10.681,28.233,25.59,1.181,10.288,.18,20.609,.54,28.687Zm-18.071,8.097c0-10.472,.034-20.945-.01-31.416-.04-9.316-4.126-13.458-13.319-13.483-14.295-.039-28.591-.031-42.886-.005-10.09,.019-14.19,4.129-14.204,14.271-.027,20.279,.003,40.559-.016,60.838-.009,9.254-2.574,11.79-11.873,11.813-10.306,.025-20.612,.013-30.918,.044-2.47,.008-4.701,.743-5.755,3.171-1.11,2.558,.388,4.452,2.07,6.176,1.97,2.02,3.944,4.036,5.942,6.028,23.618,23.567,47.248,47.122,70.855,70.701,3.94,3.935,6.047,4.098,10.034,.118,25.523-25.486,51.009-51.01,76.486-76.542,1.742-1.746,3.95-3.572,2.839-6.404-1.245-3.176-4.24-3.295-7.16-3.291-10.472,.015-20.945,.044-31.416-.017-7.561-.044-10.594-3.048-10.644-10.587-.069-10.472-.017-20.944-.025-31.416ZM303.137,61.294h-.017c0,10.804,.08,21.608-.028,32.411-.073,7.273-3.528,10.67-10.754,10.723-10.305,.075-20.61,.026-30.915,.031-2.876,.001-5.941-.012-7.401,2.986-1.636,3.361,1.25,5.167,3.18,7.099,24.902,24.93,49.832,49.832,74.762,74.733,5.583,5.577,6.53,5.6,12.052,.085,24.93-24.902,49.843-49.82,74.753-74.743,.937-.937,1.912-1.884,2.63-2.983,2.058-3.152,1.021-5.894-2.649-6.799-1.585-.391-3.295-.363-4.949-.368-10.305-.037-20.611,.047-30.915-.065-5.793-.063-8.554-2.522-9.396-8.195-.364-2.451-.42-4.965-.424-7.45-.037-19.613,.041-39.226-.065-58.838-.045-8.312-4.029-12.32-12.265-12.382-15.124-.115-30.251-.104-45.375-.008-8.266,.053-12.151,4.049-12.205,12.35-.068,10.471-.016,20.942-.016,31.414ZM53.812,241.262c5.654-6.538,11.392-10.935,18.913-12.325,6.738-1.246,6.715-1.169,6.735-8.287,.11-37.839,12.824-71.017,39.213-97.96,36.803-37.575,81.712-50.549,133.231-39.847,9.411,1.955,18.537,5.063,28.396,4.15,3.328-.308,4.862-1.183,4.724-4.676-.177-4.484-.105-8.981-.037-13.471,.038-2.48-.955-3.938-3.321-4.894-15.858-6.407-32.357-10.201-49.362-11.337-26.799-1.79-52.765,2.344-77.508,12.918-32.269,13.791-57.842,35.545-76.609,65.286-14.011,22.205-22.303,46.395-24.929,72.428-1.232,12.215-1.141,24.536,.553,38.016Zm164.222,146.266c27.11,.468,51.054-5.172,73.745-15.885,30.741-14.513,55.101-36.353,72.302-65.731,22.841-39.011,29.439-80.644,19.108-124.833-.995-4.254-2.322-3.451-4.627-1.096-5.583,5.701-11.218,11.351-16.923,16.929-1.857,1.816-2.214,3.672-1.903,6.253,.695,5.761,1.279,11.591,1.188,17.382-.503,31.905-9.993,60.791-29.849,85.972-20.71,26.264-47.372,43.341-80.039,50.721-17.676,3.993-35.554,4.571-53.447,1.488-3.027-.521-4.97,.227-7.004,2.346-5.178,5.395-10.467,10.693-15.887,15.846-3.007,2.859-2.481,3.89,1.404,4.892,14.385,3.709,28.877,6.361,41.93,5.717Z"/><path class="cls-1" d="M212.084,254.576c4.488,0,8.983,.172,13.461-.038,7.891-.37,12.724-5.475,12.686-13.093-.038-7.526-4.55-11.985-12.645-12.424-7.731-.419-15.538,.85-23.058-2.61-11.367-5.231-19.783-17.752-18.926-29.164,1.037-13.813,9.796-25.029,22.666-28.44,3.737-.99,5.052-2.698,4.997-6.537-.124-8.584,3.048-13.016,8.827-13.045,4.561-.022,10.184,3.849,9.137,12.851-.501,4.305,1.226,6.183,5.646,5.721,2.3-.241,4.655-.124,6.975,.014,5.238,.312,9.095,4.112,9.046,8.775-.049,4.66-3.915,8.507-9.198,8.62-8.639,.184-17.286-.017-25.927,.123-7.32,.118-12.18,4.018-13.315,10.345-1.421,7.929,3.207,14.284,11.231,15.072,3.46,.34,6.973,.162,10.463,.173,16.29,.052,29.579,10.522,31.976,25.211,2.642,16.183-6.182,30.105-22.505,35.077-3.295,1.004-4.624,2.611-4.442,6.002,.123,2.291,.026,4.722-.62,6.898-1.266,4.268-4.33,6.676-8.902,6.514-4.184-.148-7.679-3.634-8.345-7.96-.025-.164-.027-.331-.046-.496q-1.145-9.845-11.289-10.029c-6.256-.113-10.591-3.743-10.543-8.827,.048-5.065,4.382-8.615,10.687-8.686,3.989-.045,7.978-.008,11.967-.008v-.04Z"/></svg>