<?xml version="1.0" encoding="UTF-8"?><svg id="Camada_1" xmlns="http://www.w3.org/2000/svg" xmlns:xlink="http://www.w3.org/1999/xlink" viewBox="0 0 1543.981 393.035"><defs><style>.cls-1{fill:url(#Gradiente_sem_nome_43);}.cls-2{fill:url(#Gradiente_sem_nome_40);}.cls-3{fill:url(#Gradiente_sem_nome_42);}.cls-4{fill:url(#Gradiente_sem_nome_41);}.cls-5{fill:url(#Gradiente_sem_nome_44);}.cls-6{fill:url(#Gradiente_sem_nome_39);}</style><linearGradient id="Gradiente_sem_nome_44" x1="19.539" y1="178.65" x2="1410.363" y2="178.65" gradientTransform="matrix(1, 0, 0, 1, 0, 0)" gradientUnits="userSpaceOnUse"><stop offset="0" stop-color="#ff006c"/><stop offset="1" stop-color="#ff622c"/></linearGradient><linearGradient id="Gradiente_sem_nome_40" x1="17.568" y1="177.351" x2="1406.391" y2="177.351" gradientTransform="matrix(1, 0, 0, 1, 0, 0)" gradientUnits="userSpaceOnUse"><stop offset="0" stop-color="#ff006c"/><stop offset="1" stop-color="#ff622c"/></linearGradient><linearGradient id="Gradiente_sem_nome_43" x1="22.965" y1="136.653" x2="1422.894" y2="136.653" gradientTransform="matrix(1, 0, 0, 1, 0, 0)" gradientUnits="userSpaceOnUse"><stop offset="0" stop-color="#ff006c"/><stop offset="1" stop-color="#ff622c"/></linearGradient><linearGradient id="Gradiente_sem_nome_39" x1="22.023" y1="176.596" x2="1406.767" y2="176.596" gradientTransform="matrix(1, 0, 0, 1, 0, 0)" gradientUnits="userSpaceOnUse"><stop offset="0" stop-color="#ff006c"/><stop offset="1" stop-color="#ff622c"/></linearGradient><linearGradient id="Gradiente_sem_nome_41" x1="17.25" y1="177.361" x2="1408.135" y2="177.361" gradientTransform="matrix(1, 0, 0, 1, 0, 0)" gradientUnits="userSpaceOnUse"><stop offset="0" stop-color="#ff006c"/><stop offset="1" stop-color="#ff622c"/></linearGradient><linearGradient id="Gradiente_sem_nome_42" x1="17.229" y1="175.048" x2="1402.425" y2="175.048" gradientTransform="matrix(1, 0, 0, 1, 0, 0)" gradientUnits="userSpaceOnUse"><stop offset="0" stop-color="#ff006c"/><stop offset="1" stop-color="#ff622c"/></linearGradient></defs><path class="cls-5" d="M1420.56,190.895c-.745,2.479-.4,5.068-.809,7.6-2.53,15.671-8.613,29.741-18.851,41.903-6.803,8.082-14.915,14.656-24.105,19.893-13.671,7.791-28.474,12.147-43.943,14.466-1.333,.2-2.715,.14-4.072,.102-12.724-.352-25.149-2.271-36.99-7.167-5.111-2.113-9.908-4.847-14.722-7.543-14.091-7.891-28.184-15.78-42.269-23.682-13.318-7.472-26.629-14.956-39.94-22.442-5.435-3.057-10.882-6.095-16.281-9.216-2.828-1.635-5.543-1.697-8.395-.076-7.09,4.03-14.214,8-21.326,11.991-12.48,7.004-24.962,14.006-37.443,21.01-12.411,6.964-24.846,13.886-37.225,20.907-8.57,4.861-17.236,9.456-26.757,12.255-10.457,3.074-21.123,4.544-31.987,3.893-20.499-1.23-38.813-8.248-54.664-21.401-8.899-7.385-16.039-16.226-21.594-26.373-5.954-10.876-9.567-22.506-10.95-34.775-2.512-22.279,2.124-43.052,13.637-62.311,4.17-6.976,9.116-13.362,14.868-19.045,14.796-14.617,32.385-23.961,52.99-27.536,9.685-1.68,19.25-1.07,28.836,.651,14.448,2.594,28.037,7.683,41.189,14.045,11.968,5.789,23.378,12.574,34.547,19.755,15.939,10.248,31.807,20.609,47.681,30.958,2.744,1.789,5.363,3.77,8.054,5.642,3.591,2.499,4.747,2.462,8.398-.061,6.118-4.227,12.228-8.465,18.388-12.631,17.358-11.739,34.999-23.021,53.223-33.393,5.69-3.239,11.112-6.955,16.915-10.02,9.507-5.021,19.385-9.123,29.776-11.933,6.651-1.798,13.407-2.948,20.282-3.56,9.647-.859,19.161-.213,28.591,1.898,13.415,3.004,25.547,8.758,36.231,17.385,20.896,16.873,32.95,38.918,37.666,65.159,.409,2.274,.77,4.574,.677,6.909-.032,.804,.06,1.596,.371,2.35v14.391Zm-93.494-77.733c-9.812-.018-18.693,1.769-27.252,5.172-14.817,5.892-28.916,13.228-42.66,21.272-19.748,11.558-38.539,24.596-57.575,37.254-3.198,2.127-3.115,3.021,.268,4.913,12.14,6.786,24.285,13.561,36.426,20.346,21.071,11.776,42.109,23.611,63.226,35.303,7.005,3.879,14.631,6.055,22.624,6.612,9.946,.693,19.631-.875,28.98-4.257,12.444-4.502,22.353-12.231,29.254-23.628,6.082-10.043,8.692-21.064,8.903-32.682,.143-7.877-1.077-15.61-3.392-23.146-3.508-11.424-9.183-21.646-17.716-30.059-11.509-11.346-25.39-17.215-41.085-17.099Zm-367.773,69.748c.04,7.981,.576,12.424,2.607,19.421,3.499,12.057,10.128,21.997,20.28,29.485,10.5,7.745,22.508,11.254,35.335,12.244,11.547,.891,22.424-1.525,32.556-7.176,7.402-4.128,14.805-8.255,22.199-12.397,12.207-6.839,24.4-13.704,36.612-20.534,13.12-7.337,26.262-14.633,39.378-21.976,3.905-2.186,3.927-2.773,.254-5.211-12.992-8.624-25.858-17.437-38.986-25.856-15.428-9.894-31.186-19.2-47.864-26.862-6.611-3.037-13.238-6.043-20.268-8.046-9.829-2.801-19.799-3.786-29.896-1.988-14.918,2.656-26.928,10.277-36.181,22.153-10.686,13.715-15.881,29.387-16.028,46.743Z"/><path class="cls-2" d="M0,140.048c.837-1.362,.749-2.906,.89-4.412,.764-8.155,2.307-16.136,5.545-23.708,5.393-12.611,14.878-20.535,28.015-24.159,5.486-1.513,11.103-2.202,16.793-2.566,7.354-.47,14.704-.187,22.054-.301,.719-.011,1.442-.022,2.158,.035,2.272,.179,3.131,1.001,3.254,3.313,.089,1.673-.017,3.355-.013,5.033,.011,5.195,.034,10.389,.051,15.584,.003,.799,.027,1.6-.009,2.397-.118,2.595-.934,3.46-3.523,3.477-4.157,.028-8.315-.074-12.472-.061-4.817,.015-9.575,.556-14.21,1.915-3.57,1.046-6.826,2.638-9.54,5.295-3.251,3.183-4.81,7.087-5.314,11.503-.072,.634-.08,1.276-.087,1.915-.131,11.743-.351,23.485-.367,35.228-.04,28.371,.008,56.743,.047,85.115,.003,2.472,.202,4.944,.305,7.416,.05,1.206-.108,2.396-.348,3.571-.418,2.05-1.288,2.83-3.392,3.09-.396,.049-.798,.091-1.195,.076-7.673-.3-15.348-.133-23.023-.103-4.066,.016-4.996-.939-5.116-5.099-.104-3.597,.273-7.185,.284-10.773,.076-24.295,.062-48.591,.087-72.886,.003-2.56-.155-5.108-.387-7.655-.052-.569-.168-1.103-.486-1.583v-31.659Z"/><path class="cls-1" d="M641.61,244.899c-1.161,1.211-2.143,2.243-3.132,3.267-13.017,13.483-28.845,21.593-47.361,24.214-19.589,2.773-38.19-.758-55.828-9.604-9.157-4.592-17.38-10.503-24.545-17.808-13.533-13.798-21.836-30.222-24.225-49.467-.963-7.756-2.117-15.484-1.997-23.369,.191-12.534,3.037-24.358,8.363-35.651,5.18-10.985,12.265-20.598,21.148-28.833,15.378-14.256,33.378-23.29,54.254-26.034,16.765-2.204,32.844,.328,47.905,8.291,7.478,3.954,14.158,8.983,20.066,15.048,.724,.744,1.355,2.283,2.498,1.802,.898-.378,.38-1.89,.421-2.892,.588-14.217,.748-28.449,.354-42.664-.432-15.584-.238-31.164-.401-46.745-.034-3.277,.006-6.555,.05-9.831,.047-3.435,1.171-4.541,4.66-4.615,3.678-.078,7.336,.385,11.019,.361,3.919-.026,7.826-.256,11.739-.356,.874-.022,1.768,.015,2.624,.176,1.73,.324,2.487,1.127,2.691,2.892,.128,1.106,.098,2.234,.097,3.352-.012,52.517-.038,105.034-.042,157.551-.002,33.173,.029,66.346,.044,99.518,0,.959,.03,1.922-.04,2.876-.167,2.291-1.025,3.131-3.282,3.292-.398,.028-.799,.02-1.199,.02-6.957,.001-13.915,.003-20.872-.002-.639,0-1.287,.017-1.915-.081-1.436-.223-2.309-1.056-2.554-2.477-.121-.702-.097-1.433-.098-2.151-.007-5.755,.003-11.51-.013-17.265-.002-.782,.164-1.592-.432-2.816Zm-61.21-132.704c-7.253-.245-15.171,1.226-22.769,4.165-20.645,7.986-33.626,22.68-38.241,44.443-1.43,6.746-1.59,13.589-1.108,20.498,.779,11.166,3.338,21.776,8.891,31.551,6.283,11.06,15.272,19.16,26.938,24.285,11.225,4.932,22.94,6.159,34.978,4.441,12.948-1.848,24.334-7.19,33.88-16.151,8.128-7.631,13.442-17.016,16.213-27.792,1.982-7.708,2.731-15.531,2.018-23.51-.734-8.218-1.715-16.363-4.494-24.191-4.143-11.67-11.19-21.13-21.562-27.97-10.235-6.749-21.56-9.893-34.744-9.768Z"/><path class="cls-6" d="M863.888,110.67c0-5.552-.012-10.897,.006-16.241,.008-2.474-.11-4.951,.257-7.419,.32-2.151,.31-2.241,2.505-2.252,5.837-.028,11.674-.012,17.512-.012,2.399,0,4.798-.03,7.196,.015,1.932,.037,2.146,.287,2.249,2.264,.033,.638,.014,1.278,.014,1.918,0,58.424,0,116.848,0,175.273q0,4.351-4.347,4.355c-6.877,.002-13.753,0-20.63,0-.64,0-1.28,.016-1.919-.014-2.211-.106-2.305-.226-2.569-2.516-.532-4.621-.202-9.261-.311-13.891-.075-3.188-.014-6.379-.014-9.541-.998-.229-1.135,.481-1.43,.868-9.479,12.415-22.145,20.101-36.859,24.647-9.075,2.804-18.425,4.088-27.918,3.829-22.23-.605-41.971-7.822-58.64-22.736-16.238-14.529-25.545-32.861-29.369-54.163-1.092-6.081-1.679-12.228-1.616-18.355,.247-24.008,6.938-45.867,22.726-64.406,9.721-11.414,21.659-19.807,35.704-25.138,9.113-3.459,18.538-5.339,28.29-5.824,15.669-.78,30.549,2.105,44.549,9.204,9.11,4.62,16.9,10.898,23.093,19.077,.279,.369,.466,.852,1.523,1.058Zm-60.699,130.589c9.694,.125,19.409-1.921,28.459-6.58,14.849-7.644,24.081-19.897,28.704-35.773,2.297-7.889,3.085-15.97,2.943-24.171-.165-9.521-1.707-18.77-5.386-27.585-6.653-15.938-18.072-26.89-34.497-32.431-10.105-3.409-20.466-4.14-30.999-2.471-16.167,2.561-29.279,10.275-39.035,23.43-9.274,12.505-12.743,26.867-12.642,42.174,.039,5.9,.797,11.784,2.356,17.531,4.4,16.222,13.378,29.06,27.982,37.664,9.736,5.736,20.35,8.314,32.115,8.212Z"/><path class="cls-4" d="M193.613,181.765c-22.953,0-45.905,0-68.858,.001-.88,0-1.762-.027-2.638,.032-2.204,.149-3.019,1.064-2.822,3.239,.615,6.794,1.858,13.457,4.385,19.827,6.213,15.659,17.224,26.674,32.548,33.484,10.989,4.883,22.569,6.623,34.449,5.59,17.89-1.555,33.292-8.625,45.606-21.918,2.174-2.347,4.103-4.901,5.882-7.567,.709-1.063,1.424-2.134,2.254-3.102,1.338-1.561,2.947-1.8,4.723-.764,.686,.4,1.314,.911,1.934,1.414,4.475,3.629,9.158,6.974,13.889,10.255,.525,.364,1.048,.736,1.539,1.144,2.05,1.705,2.305,2.739,.767,4.899-2.177,3.058-4.411,6.092-6.833,8.957-7.056,8.346-15.01,15.703-24.253,21.619-11.832,7.573-24.637,12.511-38.612,14.193-27.897,3.359-52.692-4.28-74.697-21.42-11.275-8.783-20.094-19.657-26.393-32.481-4.943-10.063-7.861-20.699-8.822-31.926-1.289-15.066,1.6-29.41,6.678-43.466,3.915-10.836,9.195-20.93,16.387-29.951,14.176-17.781,32.444-28.704,55.025-31.937,23.109-3.309,44.621,1.516,64.116,14.245,21.963,14.34,34.852,34.759,38.816,60.691,1.088,7.114,1.479,14.301,.685,21.504-.227,2.055-.841,2.825-2.832,3.299-1.105,.263-2.227,.193-3.344,.194-23.192,.004-46.385,.003-69.577,.003v-.059Zm-13.907-24.91c17.664,0,35.329,0,52.993-.002,.799,0,1.605,.038,2.396-.049,1.309-.143,1.65-.546,1.559-1.888-.147-2.164-.734-4.25-1.295-6.33-3.919-14.522-12.523-25.374-25.852-32.315-10.381-5.406-21.503-7.386-33.185-6.503-9.719,.735-18.86,3.296-27.334,8.124-14.066,8.016-23.1,19.874-27.05,35.58-.634,2.519-.187,3.234,2.396,3.444,1.66,.135,3.345-.059,5.019-.06,16.785-.007,33.569-.004,50.354-.003Z"/><path class="cls-3" d="M304.182,205.564c0-19.027-.08-38.055,.025-57.081,.084-15.206,4.685-28.947,14.196-40.894,8.608-10.812,19.761-18.023,32.714-22.601,10.559-3.732,21.46-5.091,32.588-4.436,14.299,.842,27.467,5.172,39.08,13.676,12.356,9.048,20.059,21.298,24.104,35.949,1.666,6.034,2.373,12.217,2.916,18.438,1.037,11.885,1.082,23.794,.748,35.694-.186,6.633-.216,13.261-.237,19.892-.009,2.952,.391,5.913,.272,8.856-.438,10.787-.364,21.577-.243,32.362,.07,6.229,.319,12.458,.278,18.691-.032,4.825-.778,5.587-5.539,5.588-7.598,.002-15.196,.011-22.795-.004-3.53-.007-4.605-.966-4.697-4.523-.111-4.314-.042-8.633-.044-12.95-.003-6.236-.134-12.475,.022-18.707,.633-25.256,.192-50.516,.305-75.773,.05-11.097-2.572-21.56-9-30.821-6.063-8.735-14.333-13.981-24.919-15.435-2.463-.338-4.96-.285-7.429-.126-6,.385-11.944,1.092-17.467,3.763-8.403,4.062-14.038,10.687-17.675,19.117-3.28,7.604-4.535,15.602-4.512,23.857,.059,20.946,.049,41.892,.069,62.837,.013,14.23,.033,28.461,.036,42.691,0,1.035-.009,2.09-.199,3.101-.365,1.947-1.294,2.731-3.245,2.936-.476,.05-.959,.038-1.438,.038-7.918,.003-15.836,.003-23.754,.002-.48,0-.962,.01-1.438-.039-1.842-.187-2.573-.891-2.734-2.699-.071-.794-.038-1.598-.038-2.397-.002-19.667-.001-39.334-.001-59.001h.05Z"/></svg>