<?xml version="1.0" encoding="UTF-8"?><svg id="Camada_1" xmlns="http://www.w3.org/2000/svg" xmlns:xlink="http://www.w3.org/1999/xlink" viewBox="0 0 487.805 511.378"><defs><style>.cls-1{fill:url(#Nova_amostra_de_gradiente_1-2);}.cls-2{fill:url(#Nova_amostra_de_gradiente_1-3);}.cls-3{fill:url(#Nova_amostra_de_gradiente_1-4);}.cls-4{fill:url(#Nova_amostra_de_gradiente_1-5);}.cls-5{fill:url(#Nova_amostra_de_gradiente_1);}</style><linearGradient id="Nova_amostra_de_gradiente_1" x1="0" y1="255.689" x2="487.805" y2="255.689" gradientTransform="matrix(1, 0, 0, 1, 0, 0)" gradientUnits="userSpaceOnUse"><stop offset="0" stop-color="#ff006c"/><stop offset="1" stop-color="#ff622c"/></linearGradient><linearGradient id="Nova_amostra_de_gradiente_1-2" x1="204.767" y1="316.901" x2="281.883" y2="316.901" xlink:href="#Nova_amostra_de_gradiente_1"/><linearGradient id="Nova_amostra_de_gradiente_1-3" x1="157.952" y1="147.122" x2="330.042" y2="147.122" xlink:href="#Nova_amostra_de_gradiente_1"/><linearGradient id="Nova_amostra_de_gradiente_1-4" x1="204.693" y1="147.055" x2="221.112" y2="147.055" xlink:href="#Nova_amostra_de_gradiente_1"/><linearGradient id="Nova_amostra_de_gradiente_1-5" x1="266.626" y1="147.057" x2="283.052" y2="147.057" xlink:href="#Nova_amostra_de_gradiente_1"/></defs><path class="cls-5" d="M249.874,0c14.349,6.276,20.455,17.712,16.208,30.392-1.875,5.6-5.469,9.799-10.477,12.874-3.076,1.889-5.141,12.434-2.975,15.239,1.324,1.715,3.355,1.174,5.121,1.177,20.957,.037,41.915-.068,62.872,.058,19.04,.114,34.763,12.534,38.74,30.55,.818,3.706,1.288,7.586,1.202,11.37-.101,4.449,1.268,6.402,5.972,6.117,4.351-.263,8.614,.76,12.49,2.89,6.499,3.571,10.954,8.906,11.838,16.326,1.537,12.903,1.521,25.929,.149,38.81-1.321,12.403-10.684,20.131-23.277,20.057-4.737-.028-6.88,.742-7.337,6.325-1.325,16.172-8.161,29.344-23.394,36.909-5.474,2.719-11.381,3.597-17.429,3.617-10.479,.034-20.96,.143-31.435-.047-3.927-.071-5.193,1.345-5.187,5.223,.015,9.452-.145,9.357,9.376,9.486,6.469,.088,12.948-.51,19.409,.646,15.071,2.698,25.292,11.353,30.762,25.409,1.497,3.846,3.384,4.974,7.266,4.942,7.301-.062,14.625-.602,21.917,.466,9.028,1.322,16.82,5.149,23.283,11.522,2.066,2.038,4.221,2.905,7.078,2.868,8.481-.109,16.965-.083,25.448-.021,12.431,.091,21.269,6.866,24.32,18.871,4.912,19.328,9.752,38.675,14.412,58.065,.952,3.962,2.802,6.702,6.083,9.166,18.146,13.625,20.804,41.935,5.592,57.465-2.462,2.513-5.219,4.109-8.913,2.767-3.12-1.134-4.935-3.385-5.415-6.577-.493-3.281,1.593-5.592,3.375-8.018,7.719-10.512,4.968-26.354-5.781-33.559-8.211-5.504-18.142-5.026-25.417,1.226-8.546,7.343-11.307,18.881-6.68,28.423,.934,1.926,2.287,3.653,3.489,5.443,2.8,4.17,2.472,8.28-.923,11.167-3.367,2.864-8.275,2.523-11.545-1.299-9.218-10.772-11.898-23.121-8.205-36.811,1.226-4.547,3.264-8.768,6.26-12.383,2.159-2.606,2.399-5.179,1.58-8.328-2.759-10.615-5.31-21.284-7.97-31.925-1.536-6.144-10.508-9.566-14.91-4.907-11.574,12.25-25.98,14.242-41.621,13.605-9.923-.404-9.849-.059-11.673,9.407-6.527,33.888-24.865,58.985-55.925,74.387-3.54,1.755-4.659,3.858-4.696,7.686-.103,10.624,1.104,21.309-.706,31.868-3.529,20.587-21.012,33.809-42.46,32.326-18.724-1.294-34.404-18.226-34.958-38.001-.242-8.642-.228-17.301,.007-25.944,.108-3.988-1.137-6.156-4.883-8.046-32.351-16.325-51.073-42.588-56.167-78.463-.545-3.841-1.983-5.405-6.034-5.386-7.631,.037-15.285,.647-22.906-.563-8.514-1.353-15.962-4.901-21.761-11.195-4.192-4.549-9.151-2.868-13.95-2.774-1.749,.034-2.106,1.951-2.466,3.383-2.994,11.928-5.922,23.873-8.932,35.798-.734,2.909,.457,5.031,2.087,7.308,9.753,13.624,10.242,30.942,1.36,44.503-.998,1.524-2.112,3-3.347,4.337-3.421,3.705-8.161,4.291-11.552,1.542-3.601-2.92-4.074-7.262-.827-11.506,5.629-7.358,7.041-15.189,3.582-23.882-3.912-9.83-13.645-16.077-23.054-14.661-10.135,1.525-18.312,10.276-19.357,20.679-.641,6.379,.603,12.138,4.732,17.296,3.955,4.94,3.808,9.201,.105,12.348-3.933,3.343-8.257,2.54-12.517-2.325-13.722-15.67-11.369-42.458,5.323-55.37,4.433-3.429,6.649-7.26,7.891-12.524,4.351-18.437,9.035-36.797,13.689-55.162,3.223-12.719,11.81-19.389,24.842-19.458,8.15-.043,16.302-.105,24.449,.036,3.198,.055,5.615-.842,7.978-3.134,8.123-7.882,18.04-11.658,29.329-11.804,5.654-.073,11.312-.097,16.965,.008,2.638,.049,4.213-.752,5.282-3.403,7.833-19.431,20.034-27.555,41.026-27.563,4.823-.002,9.649-.091,14.47,.023,3.032,.072,4.48-.865,4.627-4.225,.456-10.417,.58-10.411-9.899-10.413-8.982-.001-17.964,.068-26.945-.021-21.143-.208-37.027-14.171-40.089-35.136-.524-3.585-.035-7.935-1.93-10.534-1.963-2.691-6.559-.71-9.967-1.257-11.416-1.834-19.325-10.875-19.749-23.497-.346-10.3-.383-20.633,.007-30.931,.53-14.007,10.242-23.26,24.592-23.498,4.67-.077,6.313-1.382,6.384-6.241,.379-25.812,16.824-41.88,42.489-41.9,19.959-.016,39.92-.136,59.877,.091,4.798,.055,6.329-1.434,6.281-6.236-.052-5.083-.788-8.568-5.657-11.905-14.676-10.057-12.399-32.083,3.611-39.847,1.343-.651,2.731-1.211,4.099-1.813h11.977Zm-121.501,294.635v.031c-2.827,0-5.656-.064-8.482,.011-12.302,.325-21.55,9.864-21.559,22.191-.008,12.357,9.163,21.899,21.495,22.23,5.319,.143,10.653-.144,15.963,.12,4.634,.23,7.561-.377,7.261-6.273-.226-4.424,3.585-7.739,7.62-7.672,4.41,.073,7.118,2.573,8.012,6.812,.406,1.925,.394,3.963,.375,5.948-.085,8.999,.423,17.936,2.334,26.761,5.241,24.205,17.428,43.616,38.889,56.718,3.2,1.954,4.762,1.972,4.494-2.399-.193-3.147-.108-6.321,.01-9.477,.669-17.929,12.918-32.939,30.188-37.061,17.026-4.064,34.448,3.758,43.174,19.362,4.746,8.486,5.25,17.744,4.843,27.123-.182,4.205,1.118,4.523,4.453,2.478,12.621-7.74,22.575-17.956,29.611-31.015,9.261-17.188,12.099-35.696,11.665-54.956-.14-6.201,3.114-10.118,7.837-10.328,4.795-.213,8.052,3.302,8.32,9.678,.139,3.32,1.485,4.335,4.57,4.27,6.151-.128,12.31,.063,18.46-.091,12.305-.309,21.528-9.9,21.525-22.218-.003-12.311-9.267-21.907-21.555-22.19-5.818-.134-11.65,.146-17.46-.114-4.018-.18-5.599,1.101-5.594,5.324,.006,5.2-3.377,8.533-7.781,8.665-4.354,.131-7.782-3.116-8.237-8.315-.332-3.799-.46-7.673-.118-11.462,1.262-13.983-12.088-25.525-25.396-25.314-39.574,.628-79.172,.664-118.744-.026-12.922-.225-26.937,11.587-25.516,25.847,.439,4.401,.731,8.995-.587,13.386-1.133,3.774-3.77,5.945-7.726,5.829-3.918-.115-6.324-2.439-7.609-6.13-.842-2.416,1.163-6.012-1.874-7.206-2.477-.975-5.557-.437-8.371-.528-1.495-.048-2.993-.009-4.49-.009ZM244.104,76.063c-25.271,0-50.541-.021-75.812,.008-15.596,.018-24.88,9.231-24.899,24.752-.035,30.258-.035,60.517,0,90.775,.018,15.198,9.386,24.733,24.444,24.746,50.708,.047,101.415,.046,152.123,0,14.816-.014,24.385-9.556,24.41-24.284,.053-30.591,.054-61.182-.001-91.772-.027-14.726-9.619-24.19-24.453-24.213-25.271-.039-50.541-.011-75.812-.011Zm22.555,365.409c0-10.294,.1-20.59-.025-30.882-.159-13.049-9.931-22.934-22.553-23.029-12.846-.097-22.864,9.85-22.941,23.131-.121,20.588-.121,41.177,.002,61.765,.077,12.978,9.927,22.924,22.544,23.132,12.591,.208,22.803-10.044,22.953-23.234,.117-10.293,.023-20.588,.02-30.882Zm152.443-131.934c-1.83,0-3.659,0-5.489,0q-7.767,.001-7.833,7.674c-.011,1.163,.037,2.355-.198,3.481-.566,2.714,.621,3.676,3.178,3.57,1.494-.062,2.993-.014,4.49,.009,7.528,.114,9.884,1.986,11.764,9.456,2.636,10.475,5.246,20.957,7.843,31.442q1.989,8.031,10.313,6.858c.658-.093,1.324-.158,1.988-.171,3.835-.075,4.677-1.822,3.722-5.475-3.616-13.825-7.134-27.68-10.419-41.587-3.891-16.469-3.652-15.294-19.359-15.258Zm-349.682,.002c-2.492,0-4.984-.016-7.475,.003-7.537,.057-9.158,1.29-11.009,8.684-3.506,14.008-6.96,28.028-10.418,42.048-2.514,10.193-2.461,10.038,7.602,12.599,3.567,.908,5.005,.156,5.821-3.465,2.26-10.037,4.842-20.001,7.325-29.987q3.437-13.821,17.807-15.128c2.234-.197,3.105-.772,3.123-3.26,.083-11.497,.174-11.497-11.28-11.497-.498,0-.997,0-1.495,.002Zm173.963-62.201c4.652,0,9.303,0,13.955,0,9.567,0,9.414-.001,9.408-9.422-.003-3.832-1.21-5.328-5.165-5.254-10.296,.194-20.599,.061-30.899,.061-10.115,0-9.976-.004-9.652,10.171,.115,3.604,1.673,4.55,4.91,4.475,5.811-.135,11.628-.038,17.443-.031Zm-116.3-100.592c0-5.985,.031-11.971-.021-17.955-.014-1.602,.289-3.383-1.574-4.392-5.388-2.917-12.687,1.022-12.997,7.159-.201,3.98-.068,7.978-.067,11.968,.001,6.318-.125,12.64,.07,18.952,.167,5.41,3.06,7.191,9.651,7.306,5.61,.098,4.942-3.586,4.945-7.077,.006-5.32,.001-10.64-.007-15.961Zm233.594-.279c0,5.817,0,11.634,0,17.452,0,.332-.013,.666,.012,.997,.125,1.622-.134,3.354,1.702,4.358,5.398,2.952,12.72-.928,12.889-7.056,.196-7.142,.065-14.292,.065-21.439,0-3.158,.128-6.325-.076-9.471-.346-5.364-3.643-7.401-10.28-7.342-5.64,.05-4.182,4.023-4.273,7.045-.155,5.148-.043,10.304-.04,15.456ZM243.978,30.408c3.676-.062,7.304-3.732,7.324-7.408,.021-3.897-3.909-7.66-7.769-7.436-3.734,.216-7.229,3.983-7.084,7.634,.147,3.695,3.881,7.272,7.528,7.21Z"/><path class="cls-1" d="M204.768,316.708c.116-20.888,17.903-38.512,38.724-38.367,20.837,.145,38.613,18.099,38.389,38.774-.226,20.916-18.029,38.513-38.795,38.347-20.9-.167-38.434-17.9-38.319-38.754Zm16.358,.438c.074,12.431,9.824,22.043,22.276,21.961,12.421-.082,22.155-9.821,22.165-22.177,.01-12.46-10.092-22.391-22.631-22.249-12.373,.14-21.884,9.938-21.81,22.464Z"/><path class="cls-2" d="M243.722,201.743c-19.625,.004-39.251,.034-58.876-.006-16.95-.034-26.429-9.058-26.68-26.05-.285-19.288-.286-38.588,.002-57.876,.246-16.477,9.626-25.286,26.158-25.294,23.617-.012,47.234,.03,70.851-.031,3.931-.01,7.315,.779,9.233,4.559,2.17,4.276-.004,9.347-4.664,10.892-2.718,.902-5.567,.858-8.401,.857-22.286-.009-44.573-.022-66.859,.007-8.069,.01-10.127,2.037-10.138,9.952-.027,18.96-.03,37.92,.002,56.88,.012,7.509,2.272,9.747,9.886,9.752,39.75,.022,79.499,.022,119.249,0,7.797-.004,9.932-2.223,9.941-10.206,.021-18.794,.024-37.588-.002-56.381-.011-7.932-2.076-9.936-10.1-10.006-3.991-.035-7.994,.128-11.97-.127-5.915-.38-9.409-3.678-9.285-8.371,.126-4.749,3.737-7.689,9.705-7.761,5.155-.062,10.315-.132,15.466,.031,11.455,.362,20.975,8.693,21.739,20.116,1.488,22.241,1.293,44.554,.166,66.791-.708,13.961-10.44,22.13-24.551,22.231-20.29,.145-40.581,.037-60.871,.041Z"/><path class="cls-3" d="M221.062,147.212c0,4.639,.133,9.283-.034,13.916-.202,5.625-3.705,9.486-8.232,9.417-4.62-.071-7.924-3.822-8.003-9.586-.13-9.442-.138-18.89,.007-28.332,.084-5.452,3.339-8.951,7.918-9.063,4.563-.111,7.965,3.264,8.25,8.739,.258,4.957,.055,9.938,.055,14.908h.04Z"/><path class="cls-4" d="M283.008,147.242c-.004,4.639,.119,9.283-.035,13.917-.189,5.718-3.573,9.458-8.206,9.388-4.362-.066-7.897-3.79-8-9.118-.184-9.606-.199-19.222,.014-28.827,.124-5.595,3.385-8.967,7.963-9.036,4.751-.071,8.078,3.552,8.239,9.261,.135,4.801,.028,9.609,.024,14.414Z"/></svg>