<?xml version="1.0" encoding="UTF-8"?><svg id="a" xmlns="http://www.w3.org/2000/svg" xmlns:xlink="http://www.w3.org/1999/xlink" viewBox="0 0 992.571 992.508"><defs><style>.f{fill:url(#e);}.g{fill:url(#d);}.h{fill:url(#c);}.i{fill:url(#b);}</style><linearGradient id="b" x1="49.999" y1="471.249" x2="992.571" y2="471.249" gradientTransform="matrix(1, 0, 0, 1, 0, 0)" gradientUnits="userSpaceOnUse"><stop offset="0" stop-color="#ff036f"/><stop offset="1" stop-color="#ff6028"/></linearGradient><linearGradient id="c" x1="479.995" y1="376.967" x2="751.128" y2="376.967" xlink:href="#b"/><linearGradient id="d" x1="0" y1="873.283" x2="238.339" y2="873.283" xlink:href="#b"/><linearGradient id="e" x1="845.485" y1="407.281" x2="884.001" y2="407.281" xlink:href="#b"/></defs><path class="i" d="M992.57,39.978c-3.554,104.024-24.528,202.22-65.652,295.916-5.651,12.876-15.958,17.835-26.771,13.101-10.708-4.689-14.309-15.592-8.777-28.545,11.63-27.23,21.969-54.906,30.769-83.189,2.183-7.016,1.686-9.361-6.405-11.34-79.83-19.527-129.803-69.498-149.188-149.375-2.072-8.537-4.844-8.026-11.472-6.004-112.187,34.228-210.78,92.627-299.015,169-91.176,78.919-167.258,170.305-224.472,276.846-5.455,10.158-14.321,21.149-13.628,31.204,.709,10.28,14.333,17.008,22.382,25.187,22.922,23.295,46.334,46.111,69.127,69.531,5.323,5.47,8.146,5.555,13.565,.044,32.703-33.253,65.838-66.082,98.774-99.106,4.395-4.407,8.886-8.666,15.344-9.39,7.752-.869,14.085,2.106,18.395,8.606,4.326,6.523,4.651,13.521,.444,20.181-2.15,3.403-5.062,6.389-7.929,9.265-32.456,32.541-64.803,65.195-97.623,97.366-5.996,5.878-5.183,8.874,.285,14.248,29.138,28.634,58.076,57.477,86.63,86.691,5.384,5.508,9.396,5.483,15.747,2.37,80.755-39.588,152.386-92.245,218.719-152.457,48.296-43.838,91.71-92.123,130.166-144.829,4.536-6.217,9.364-11.682,17.9-11.928,7.952-.228,13.934,3.1,17.668,9.913,4.192,7.649,2.887,15.029-2.151,21.972-15.603,21.5-31.998,42.373-49.294,62.536-48.723,56.8-102.888,107.854-162.582,152.958-6.698,5.061-7.373,8.835-4.522,16.633,27.594,75.48,14.901,143.817-38.109,204.305-12.69,14.48-22.361,14.206-36.152,.428-48.409-48.365-96.854-96.695-145.069-145.254-4.888-4.923-9.026-6.449-15.955-4.378-29.632,8.854-59.531,16.81-89.195,25.56-10.998,3.244-19.471,1.262-27.632-7.104-24.959-25.587-50.297-50.81-75.804-75.853-7.679-7.54-9.918-15.502-6.903-25.809,8.779-30.018,16.925-60.223,25.841-90.199,2.021-6.796,.882-11.054-4.145-16.041-48.337-47.954-96.414-96.171-144.548-144.331-15.11-15.118-15.378-24.345,.79-38.275,60.585-52.196,128.745-64.378,203.706-36.702,7.553,2.789,11.03,1.575,15.695-4.54,81.01-106.174,177.098-195.611,293.357-262.349C696.017,37.304,826.399,1.305,966.202,.003c18.778-.175,26.39,7.587,26.368,26.583-.006,5.107,0,10.213,0,13.393Zm-58.347,.004c-45.366,2.29-85.011,7.616-124.246,16.277-6.007,1.326-7.471,2.906-6.327,9.278,10.95,60.997,60.613,111.13,121.511,123.052,8.46,1.656,10.265-.864,11.761-8.173,7.911-38.664,13.403-77.598,15.337-117.049,1.211-24.694,1.527-24.678-18.036-23.384ZM186.444,519.372c18.761-37.217,39.097-71.697,62.019-104.608,3.447-4.949,.979-6.301-3.17-7.667-50.468-16.616-97.749-10.316-141.847,19.507-4.012,2.713-4.766,4.771-.975,8.547,27.662,27.552,55.154,55.275,83.973,84.221Zm287.24,286.963c28.576,28.529,56.689,56.541,84.718,84.637,4.207,4.217,5.791,.502,7.623-2.201,29.635-43.729,35.863-90.714,19.65-140.876-1.826-5.648-3.795-6.577-9.103-3.072-18.13,11.971-36.411,23.745-55.042,34.915-15.323,9.187-31.225,17.408-47.847,26.596Zm-230.34-173.105c-6.129,21.463-12.054,42.723-18.343,63.875-1.585,5.33,1.056,8.195,4.305,11.421,17.386,17.26,35.021,34.292,51.836,52.094,6.271,6.64,11.815,8.065,20.422,5.282,19.137-6.188,38.632-11.272,57.728-16.734-38.947-38.943-77.081-77.074-115.948-115.938Z"/><path class="h" d="M616.009,512.544c-75.011,.253-135.842-60.232-136.013-135.24-.171-74.92,60.616-135.908,135.468-135.914,74.816-.007,135.833,61.109,135.664,135.883-.169,74.492-60.629,135.021-135.119,135.272Zm-.568-38.779c53.41,.014,96.847-43.336,96.89-96.695,.043-53.236-43.579-96.886-96.824-96.885-53.312,0-96.703,43.433-96.736,96.828-.033,53.431,43.237,96.738,96.67,96.752Z"/><path class="g" d="M158.309,754.058c35.373-.072,65.57,21.753,76.009,53.184,10.585,31.87-.123,66.718-27.461,86.221-31.924,22.775-67.063,40.116-101.717,58.183-25.011,13.039-50.508,25.142-75.571,38.084-8.914,4.603-16.385,3.462-23.192-3.236-6.758-6.65-8.338-14.047-3.811-23.087,24.2-48.33,47.988-96.868,74.955-143.755,6.783-11.794,13.713-23.488,21.822-34.44,15.269-20.622,36.268-29.936,58.965-31.152Zm-94.05,172.08c.717,.622,1.433,1.245,2.15,1.867,38.766-20.31,78.187-39.44,114.843-63.583,14.09-9.28,20.55-22.586,17.525-39.326-3.088-17.095-13.8-27.585-30.782-31.38-15.274-3.413-30.326,3.077-40.093,17.937-7.641,11.626-14.929,23.533-21.603,35.736-14.278,26.105-28.057,52.483-42.041,78.749Z"/><path class="f" d="M865.033,426.592c-10.356,.165-19.526-8.942-19.548-19.414-.021-10.227,8.273-18.82,18.531-19.196,10.765-.394,19.715,7.98,19.979,18.693,.261,10.617-8.433,19.749-18.962,19.917Z"/></svg>