<?xml version="1.0" encoding="UTF-8"?><svg id="a" xmlns="http://www.w3.org/2000/svg" xmlns:xlink="http://www.w3.org/1999/xlink" viewBox="0 0 976.692 977.189"><defs><style>.e{fill:url(#d);}.f{fill:url(#c);}.g{fill:url(#b);}</style><linearGradient id="b" x1="0" y1="488.594" x2="976.692" y2="488.594" gradientTransform="matrix(1, 0, 0, 1, 0, 0)" gradientUnits="userSpaceOnUse"><stop offset="0" stop-color="#ff036f"/><stop offset="1" stop-color="#ff6028"/></linearGradient><linearGradient id="c" x1="710.825" y1="129.806" x2="891.661" y2="129.806" xlink:href="#b"/><linearGradient id="d" x1="423.181" y1="162.819" x2="553.583" y2="162.819" xlink:href="#b"/></defs><path class="g" d="M391.064,293.356c-48.215-39.976-69.949-88.642-64.3-148.117,3.905-41.112,22.031-75.798,52.609-103.6,64.779-58.898,166.567-54.55,226.938,8.2,60.882,63.281,64.119,176.629-17.464,242.048,3.29,2.886,7.174,1.382,10.636,1.386,80.656,.106,161.312,.162,241.968,.047,35.698-.051,62.561,14.55,78.977,46.762,7.025,13.784,7.965,28.793,7.964,43.933-.017,155.512-.026,311.024,.017,466.536,.004,14.301-1.78,12.964,13.296,13.026,6.151,.025,12.323-.261,18.45,.139,10.977,.718,16.247,6.098,16.357,16.882,.177,17.429,.338,34.869-.099,52.29-.593,23.648-20.635,43.316-44.345,43.721-17.083,.292-34.175,.078-51.263,.078-275.803,.002-551.607-.363-827.407,.501-31.447,.099-56.001-23.131-53.174-53.311,1.333-14.23,.095-28.69,.281-43.043,.142-10.986,5.161-16.397,16.134-17.077,7.832-.485,15.746-.596,23.565-.047,6.997,.492,9.291-2.277,8.487-8.827-.289-2.357-.046-4.779-.046-7.172,0-154.829,.126-309.658-.106-464.487-.044-29.769,8.465-55.111,32.97-73.549,16.246-12.223,34.776-16.45,54.858-16.4,79.972,.198,159.945,.081,239.918,.081h14.782Zm-65.389,99.424c-3.878-2.769-7.041-1.767-9.97-1.771-52.626-.073-105.254,.19-157.875-.277-9.514-.084-11.746,2.667-11.728,11.947,.295,149.685,.331,299.371-.054,449.056-.027,10.449,3.321,12.085,12.706,12.047,85.772-.347,171.546-.132,257.318-.311,9.077-.019,16.788,1.805,22.916,8.91,4.741,5.497,11.001,7.698,18.261,7.662,20.845-.103,41.69-.077,62.536-.012,6.428,.02,12.552-1.308,16.726-6.282,7.371-8.783,16.703-10.347,27.528-10.314,85.431,.256,170.863,.066,256.293,.275,7.511,.018,10.613-1.223,10.595-9.937-.299-151.052-.276-302.105-.04-453.157,.012-7.671-1.979-9.918-9.656-9.824-31.776,.392-63.559,.163-95.339,.163q-25.63,0-25.63,25.389c0,25.151,.01,24.976-25.464,23.588-5.423-.295-7.125-2.206-7.033-7.322,.201-11.274-.158-22.56,.14-33.829,.144-5.459-1.116-8.072-7.306-7.942-16.737,.352-33.489,.303-50.229,.027-5.772-.095-7.479,1.899-7.701,7.662-1.288,33.351-1.433,33.345,22.11,56.829,3.145,3.137,5.916,6.798,9.484,9.341,28.267,20.142,39.393,47.206,33.596,81.374-1.205,7.101,1.176,11.463,8.232,15.262,18.636,10.034,27.522,31.931,22.866,52.586-4.749,21.064-22.333,35.899-44.504,37.545-20.639,1.532-40.041-10.558-47.975-29.895-8.033-19.578-3.755-44.403,14.088-55.152,14.744-8.882,16.123-19.663,14.864-33.657-.366-4.068-.361-8.225,.017-12.291,.554-5.955-1.615-10.243-5.892-14.412-16.883-16.458-33.265-33.432-50.197-49.838-6.625-6.419-9.735-13.474-9.344-22.722,.491-11.599-.143-23.242,.225-34.85,.182-5.756-1.708-7.936-7.531-7.773-10.927,.305-21.892,.528-32.795-.072-7.584-.418-8.925,2.724-8.885,9.503,.26,44.084,.233,88.171,.014,132.255-.029,5.86,1.755,8.901,7.109,11.758,20.085,10.719,29.515,33.194,23.824,54.785-5.63,21.358-25.609,36.697-47.647,36.58-21.455-.114-41.082-15.514-46.556-36.53-5.696-21.867,3.48-44.142,23.582-54.807,5.849-3.103,7.329-6.524,7.29-12.66-.254-39.299-.13-78.601-.13-117.902,0-23.133-.006-22.723-22.887-23.044-8.464-.119-10,2.903-9.925,10.572,.365,37.247-.136,74.503,.352,111.748,.142,10.824-3.212,18.915-11.075,26.18-11.036,10.195-21.227,21.299-32.07,31.712-4.221,4.054-6.318,8.227-6.148,14.27,.412,14.684,.355,29.392,.028,44.079-.135,6.059,1.295,9.707,7.243,12.853,19.756,10.449,29.43,32.91,24.181,53.767-5.612,22.3-24.81,37.109-48.039,37.057-21.902-.049-41.278-15.08-46.645-36.185-5.551-21.827,3.722-43.951,23.945-54.777,5.555-2.974,6.923-6.335,6.842-11.977-.245-17.084,.243-34.182-.213-51.258-.274-10.267,2.693-18.42,10.349-25.501,10.529-9.738,19.999-20.636,30.683-30.186,6.542-5.847,8.422-12.177,8.284-20.614-.447-27.332,.007-54.679-.262-82.016-.093-9.454,4.186-21.697-1.841-27.627-6.023-5.928-18.282-.919-27.714-1.977-9.539-1.07-16.871,2.197-24.056,8.402-13.18,11.381-26.359,23.051-40.914,32.476-15.875,10.28-22.292,23.103-19.624,41.654,1.204,8.371,.52,17.074,.099,25.597-.302,6.132,1.524,9.626,7.328,12.759,20.299,10.957,29.673,34.479,23.233,55.977-6.341,21.167-25.829,35.664-47.503,35.338-21.648-.326-40.697-15.531-46.198-36.875-5.514-21.396,3.455-43.675,22.99-54.215,6.126-3.305,8.14-6.721,7.958-13.39-.457-16.733,.422-33.513-.345-50.224-.544-11.861,3.772-20.063,13.165-26.961,12.209-8.964,23.747-18.842,35.943-28.623Zm163.225-66.76c-109.349,0-218.699-.01-328.048,.014-11.615,.003-23.257-.253-34.841,.406-23.115,1.316-41.688,19.335-44.115,42.394-.606,5.759-.699,11.593-.7,17.393-.036,152.416-.028,304.832-.028,457.247,0,20.125,.022,19.563,19.66,20.337,10.063,.396,13.175-1.968,13.147-12.73-.398-155.832-.275-311.666-.268-467.499,0-20.816,4.235-24.999,25.351-24.999,233.05-.007,466.101-.008,699.151,.001,21.008,0,25.108,4.138,25.109,25.241,.006,152.416,.004,304.832,.004,457.247,0,22.934,0,22.663,23.36,22.669,7.098,.002,9.318-2.027,9.31-9.239-.184-158.909-.146-317.818-.148-476.726,0-19.158-7.154-34.5-23.776-44.859-10.033-6.253-21.16-6.943-32.566-6.937-116.867,.065-233.734,.04-350.602,.04Zm-.38,619.234c142.838,0,285.676,0,428.515-.004,3.417,0,6.853,.171,10.246-.124,11.007-.956,16.757-6.57,17.456-17.649,.472-7.49-.156-15.046,.257-22.543,.358-6.5-1.72-8.891-8.642-8.881-123.019,.187-246.038,.145-369.057,.086-4.286-.002-7.914,.786-11.205,3.83-10.075,9.316-22.406,12.67-35.805,12.71-21.186,.063-42.373,.06-63.56,0-11.892-.033-23.476-2.22-32.531-10.234-5.98-5.292-12.168-6.362-19.605-6.353-116.868,.135-233.736,.095-350.604,.095q-21.882,0-21.868,22.085c.015,22.892,4.07,26.979,26.861,26.98,143.18,.005,286.361,.002,429.541,.002ZM618.659,162.916c.129-71.996-58.391-130.583-130.284-130.431-71.671,.151-129.554,57.892-130,129.681-.447,71.839,57.854,130.736,129.788,131.114,71.636,.377,130.368-58.295,130.497-130.364Zm-114.023,439.834c8.496,.111,16.447-7.78,16.399-16.278-.046-8.307-7.127-15.547-15.534-15.882-8.899-.355-16.588,6.733-16.844,15.527-.249,8.562,7.397,16.521,15.979,16.633Zm-195.792-48.549c.115-9.041-6.932-16.268-15.872-16.279-8.824-.01-16.133,7.407-16.013,16.25,.114,8.387,7.11,15.578,15.474,15.906,8.716,.341,16.299-6.994,16.411-15.877Zm82.281,146.066c9.053-.226,15.973-7.752,15.501-16.858-.449-8.66-7.547-15.203-16.281-15.008-8.598,.192-15.661,7.278-15.736,15.788-.078,8.866,7.56,16.302,16.516,16.078Zm276.366-97.519c-.042-8.533-7.019-15.663-15.558-15.896-9-.246-16.298,6.95-16.274,16.046,.024,9.249,7.172,16.143,16.405,15.821,8.611-.3,15.468-7.4,15.427-15.971Z"/><path class="f" d="M891.652,83.106c.193,5.084-2.484,9.516-6.577,13.59-30.725,30.588-61.288,61.339-92.028,91.913-9.471,9.42-19.276,9.543-28.701,.308-15.849-15.53-31.563-31.206-47.058-47.088-8.412-8.622-8.488-18.735-.946-26.369,7.355-7.445,17.885-7.284,26.451,.911,10.111,9.674,20.172,19.433,29.696,29.675,4.666,5.018,7.385,4.677,12.052-.075,24.878-25.328,50.021-50.398,75.261-75.365,9.286-9.186,21.663-8.864,28.585,.113,2.653,3.441,3.328,7.397,3.265,12.387Z"/><path class="e" d="M488.204,64.829c2.732,0,5.485,.214,8.193-.044,5.831-.555,9.451,1.105,8.422,7.778-1.094,7.093,2.32,8.783,8.958,9.973,34.005,6.096,50.545,44.561,31.888,73.831-2.949,4.626-3.597,7.348-.346,12.408,19.279,30.003,3.277,67.29-31.949,74.434-6.633,1.345-9.704,3.335-8.573,10.262,.996,6.098-2.364,7.741-7.817,7.296-3.393-.277-6.832-.18-10.241-.023-8.447,.391-17.204,1.564-14.724-11.874,.829-4.49-2.965-4.532-6.138-4.538-7.855-.016-15.714,.134-23.565-.057-12.22-.298-18.868-6.175-18.941-18.066-.259-42.351-.255-84.705,.008-127.056,.069-11.089,6.155-16.833,17.236-17.612,5.439-.382,10.929-.302,16.386-.126,8.727,.283,17.834,1.456,15.377-12.322-.526-2.947,1.826-4.151,4.555-4.189,3.756-.052,7.513-.013,11.269-.013v-.061Zm-5.491,146.845c6.815,0,13.637,.203,20.442-.047,10.494-.386,17.662-6.93,17.863-15.919,.199-8.897-6.941-16.216-17.279-16.537-13.957-.434-27.938-.029-41.906-.203-4.312-.054-5.708,1.449-6.082,5.864-2.276,26.875-2.4,26.865,23.894,26.865,1.022,0,2.044,0,3.067-.022Zm.096-65.279v-.056c7.144,0,14.302,.286,21.428-.07,9.8-.489,16.66-7.202,16.793-15.826,.13-8.457-6.678-15.945-16.336-16.336-14.265-.577-28.569-.196-42.856-.254-3.372-.014-5.434,.599-6.078,4.851-3.755,24.828-1.512,27.69,22.966,27.69h4.082Z"/></svg>