<?xml version="1.0" encoding="UTF-8"?><svg id="a" xmlns="http://www.w3.org/2000/svg" xmlns:xlink="http://www.w3.org/1999/xlink" viewBox="0 0 557.188 954.357"><defs><style>.j{fill:url(#e);}.k{fill:url(#d);}.l{fill:url(#g);}.m{fill:url(#f);}.n{fill:url(#i);}.o{fill:url(#h);}.p{fill:url(#c);}.q{fill:url(#b);}</style><linearGradient id="b" x1="0" y1="477.179" x2="557.188" y2="477.179" gradientTransform="matrix(1, 0, 0, 1, 0, 0)" gradientUnits="userSpaceOnUse"><stop offset="0" stop-color="#ff036f"/><stop offset="1" stop-color="#ff6028"/></linearGradient><linearGradient id="c" x1="90.186" y1="333.455" x2="466.751" y2="333.455" xlink:href="#b"/><linearGradient id="d" x1="146.325" y1="401.196" x2="410.706" y2="401.196" xlink:href="#b"/><linearGradient id="e" x1="202.569" y1="469.466" x2="354.397" y2="469.466" xlink:href="#b"/><linearGradient id="f" x1="239.014" y1="556.792" x2="317.804" y2="556.792" xlink:href="#b"/><linearGradient id="g" x1="239.213" y1="835.091" x2="317.993" y2="835.091" xlink:href="#b"/><linearGradient id="h" x1="199.168" y1="99.681" x2="357.721" y2="99.681" xlink:href="#b"/><linearGradient id="i" x1="398.559" y1="99.71" x2="438.185" y2="99.71" xlink:href="#b"/></defs><path class="q" d="M123.832,954.357c-4.917-1.644-9.969-2.733-15.024-3.834C47.258,937.495,2.33,882.879,.762,820.197c-1.224-209.551-.07-419.171-.34-628.742,.021-25.096-1.818-50.276,2.021-75.276C12.251,52.318,68.836,1.682,134.123,.612c68.605-1.125,137.241-.346,205.864-.388,24.841-.016,49.682-.079,74.523,.013,73.301,.272,130.402,48.913,140.784,121.473,2.749,19.214,1.626,39.035,1.637,58.578-.486,214.224,1.291,428.495-.744,642.7-2.02,63.647-52.837,119.967-116.005,129.425-2.409,.361-5.033-.022-6.999,1.945H123.832ZM39.973,457.732c0,82.901,.12,165.802-.193,248.701-.03,7.901,2.167,9.577,9.774,9.565,152.451-.234,304.902-.234,457.352-.005,7.799,.012,10.377-1.335,10.361-9.937-.306-165.801-.284-331.604-.045-497.405,.011-7.825-2.072-9.697-9.763-9.685-152.45,.232-304.902,.233-457.352,.001-7.91-.012-10.393,1.571-10.355,10.063,.367,82.899,.221,165.801,.221,248.702Zm238.719,297.717c-76.393,0-152.787,.12-229.178-.182-7.828-.031-10.003,2.146-9.714,9.821,.584,15.505,.133,31.048,.181,46.575,.181,58.636,41.476,102.229,99.998,102.803,92.222,.905,184.463,.754,276.688,.053,52.751-.401,92.574-35.608,99.28-87.664,2.6-20.18,.441-40.937,1.296-61.396,.35-8.37-2.191-10.236-10.304-10.202-76.081,.322-152.164,.191-228.247,.191Zm-.752-596.344c77.892,.022,155.803-.038,233.685,.013,3.893,.259,5.152-1.271,5.516-5.294,5.736-63.302-39.438-113.68-103.069-113.897-90.308-.308-180.619-.097-270.928-.061-60.251-1.677-107.188,49.289-103.399,109.095,.191,7.918,1.633,10.4,10.094,10.359,76.032-.369,152.066-.216,228.1-.215Z"/><path class="p" d="M466.75,365.931c.164,17.151-16.081,26.822-29.106,19.269-3.712-2.152-7.015-5.121-10.204-8.044-79.279-76.168-211.268-78.416-292.753-4.612-3.967,3.474-7.733,7.217-11.937,10.378-9.559,7.187-20.495,6.376-27.572-1.717-7.046-8.059-6.729-19.45,1.578-27.722,97.283-99.156,265.831-99.16,363.283-.296,4.111,3.978,6.723,8.912,6.712,12.745Z"/><path class="k" d="M278.434,397.909c-35.062,.524-66.061,11.986-92.532,35.325-2.785,2.455-5.573,4.961-8.636,7.034-18.873,13.134-41.052-10.972-25.936-28.517,65.838-69.748,180.919-70.987,249.858-4.748,10.869,10.206,12.489,20.968,4.548,30.2-7.954,9.247-20.124,9.246-31.1-.879-27.203-25.094-59.19-37.869-96.204-38.416Z"/><path class="j" d="M274.962,438.443c28.676,1.305,51.501,7.88,70.295,25.089,10.341,9.469,11.98,20.341,4.546,29.501-7.361,9.07-19.224,10.405-29.532,1.017-23.115-21.051-60.97-20.602-83.359-.119-10.271,9.397-22.178,8.204-29.605-.696-7.73-9.264-5.929-20.395,4.883-30.175,16.76-15.159,42.92-24.809,62.772-24.616Z"/><path class="m" d="M239.014,556.884c-.033-21.957,17.561-39.719,39.413-39.79,52.392,2,52.559,77.159,.159,79.394-21.803,.045-39.539-17.706-39.572-39.605Z"/><path class="l" d="M317.991,835.464c-.163,22.045-17.722,39.274-39.859,39.11-52.263-1.973-51.768-77.874,.749-78.969,22.043,.162,39.273,17.722,39.11,39.859Z"/><path class="o" d="M279.009,79.959c19.531,.002,39.072-.385,58.589,.13,14.514,.383,23.11,12.144,19.165,25.267-2.747,9.141-9.718,13.862-18.773,13.932-39.68,.305-79.367,.374-119.046-.024-11.653-.117-19.677-8.91-19.775-19.447-.103-10.993,8.088-19.497,20.319-19.75,19.832-.411,39.68-.111,59.521-.108Z"/><path class="n" d="M418.473,80.08c10.773,.101,19.635,8.842,19.712,19.444,.075,10.3-9.136,19.658-19.505,19.816-10.722,.163-20.365-9.489-20.116-20.134,.252-10.763,9.063-19.228,19.908-19.127Z"/></svg>