<?xml version="1.0" encoding="UTF-8"?><svg id="a" xmlns="http://www.w3.org/2000/svg" xmlns:xlink="http://www.w3.org/1999/xlink" viewBox="0 0 1070.947 696.939"><defs><style>.h{fill:url(#e);}.i{fill:url(#d);}.j{fill:url(#g);}.k{fill:url(#f);}.l{fill:url(#c);}.m{fill:url(#b);}</style><linearGradient id="b" x1="0" y1="348.469" x2="1070.947" y2="348.469" gradientTransform="matrix(1, 0, 0, 1, 0, 0)" gradientUnits="userSpaceOnUse"><stop offset="0" stop-color="#ff036f"/><stop offset="1" stop-color="#ff6028"/></linearGradient><linearGradient id="c" x1="552.967" y1="346.445" x2="796.663" y2="346.445" xlink:href="#b"/><linearGradient id="d" x1="480.015" y1="251.973" x2="645.152" y2="251.973" xlink:href="#b"/><linearGradient id="e" x1="705.484" y1="444.967" x2="870.856" y2="444.967" xlink:href="#b"/><linearGradient id="f" x1="322.694" y1="253.459" x2="373.929" y2="253.459" xlink:href="#b"/><linearGradient id="g" x1="322.697" y1="443.475" x2="373.927" y2="443.475" xlink:href="#b"/></defs><path class="m" d="M535.192,696.927c-156.51,0-313.02,.005-469.53-.002-42.957-.002-65.621-22.548-65.627-65.259-.007-54.177-.022-108.353,.009-162.53,.012-20.191,6.436-27.759,26.611-31.629,43.291-8.304,74.147-45.888,73.772-89.857-.371-43.577-31.275-80.302-74.311-88.308C6.882,255.764,.061,247.731,.048,228.293,.008,172.346-.043,116.398,.062,60.452,.13,24.19,24.362,.045,60.888,.039,377.095-.014,693.303-.01,1009.51,.033c37.21,.005,61.314,23.998,61.376,60.958,.093,55.947,.058,111.894,.005,167.841-.017,18.642-7.197,27.069-25.562,30.45-43.714,8.048-74.698,44.865-74.824,88.911-.126,44.016,30.786,81.201,74.308,89.387,19.246,3.62,26.069,11.644,26.083,31.037,.04,55.947,.099,111.894-.017,167.841-.075,36.229-24.372,60.418-60.844,60.435-158.281,.075-316.561,.032-474.842,.033ZM696.221,51.002c-42.483,0-84.967,0-127.45,0-61.601,0-123.203,.18-184.801-.207-8.531-.054-10.817,2.412-10.41,10.62,.649,13.066,.514,26.202,.03,39.284-.564,15.261-11.343,25.999-25.324,26.124-14.34,.128-25.182-11.125-25.459-26.868-.237-13.449-.453-26.921,.092-40.352,.293-7.225-2.36-8.751-9.093-8.735-83.55,.206-167.101,.236-250.651-.007-9.329-.027-12.327,3.373-12.268,12.487,.304,47.084,.274,94.171-.013,141.255-.039,6.452,2.143,9.025,8.069,11.276,56.462,21.446,92.313,72.979,92.49,132.245,.178,59.562-35.62,111.095-92.844,133.1-5.381,2.069-7.743,4.289-7.708,10.434,.27,47.792,.231,95.587,.067,143.38-.026,7.537,2.593,10.98,10.479,10.969,84.612-.123,169.225-.138,253.837,.047,6.309,.014,7.722-2.315,7.584-8.05-.325-13.445-.239-26.905-.054-40.356,.22-16.014,10.435-27.211,24.799-27.55,14.661-.346,25.693,11.101,26.075,27.575,.295,12.738,.493,25.508-.088,38.226-.345,7.571,1.329,10.248,9.705,10.237,207.814-.259,415.628-.262,623.442-.026,10.355,.012,13.464-3.474,13.373-13.595-.415-46.374-.387-92.755,.026-139.129,.066-7.443-2.524-10.245-9.117-12.73-55.351-20.862-91.326-72.986-91.507-131.855-.182-59.164,35.92-111.644,91.871-132.632,6.95-2.607,8.761-5.959,8.71-12.997-.323-45.313-.162-90.63-.167-135.945q-.002-16.216-16.752-16.223c-102.314-.002-204.628-.001-306.942-.001Z"/><path class="l" d="M578.652,514.416c-18.158,.138-30.65-17.95-23.765-34.734,1.589-3.874,4.107-7.41,6.476-10.914,61.636-91.174,123.303-182.328,184.996-273.463,2.177-3.215,4.374-6.508,7.078-9.257,8.72-8.865,21.897-10.013,32.049-3.098,10.147,6.912,13.952,19.624,9.054,30.922-1.255,2.896-2.99,5.621-4.766,8.248-62.643,92.629-125.348,185.215-187.936,277.881-5.687,8.42-12.518,14.338-23.186,14.415Z"/><path class="i" d="M563.136,169.522c45.465,.299,82.423,37.617,82.013,82.811-.413,45.546-37.433,82.236-82.831,82.093-46.089-.146-82.648-37.214-82.301-83.445,.343-45.506,37.336-81.76,83.119-81.459Zm-32.135,82.091c-.134,17.544,13.931,31.773,31.428,31.793,17.422,.02,31.884-14.437,31.725-31.714-.157-17-14.053-30.918-31.12-31.169-17.698-.26-31.899,13.522-32.033,31.09Z"/><path class="h" d="M786.877,527.397c-46.012-.634-82.191-38.16-81.38-84.411,.784-44.697,38.216-80.859,83.28-80.454,45.52,.409,82.372,37.623,82.076,82.881-.3,45.84-37.971,82.617-83.977,81.983Zm.831-50.989c17.59,.187,32.054-13.887,32.149-31.283,.095-17.239-14.494-31.681-31.91-31.59-17.064,.09-31.123,13.859-31.471,30.822-.357,17.438,13.7,31.864,31.231,32.051Z"/><path class="k" d="M322.769,252.045c.016-12.033-.221-24.072,.076-36.097,.364-14.695,10.493-25.176,24.28-25.69,13.811-.515,25.751,9.246,26.202,23.749,.813,26.161,.774,52.38,.05,78.546-.4,14.457-12.148,24.401-25.903,24.12-13.832-.282-23.972-10.695-24.676-25.344-.034-.707-.043-1.415-.043-2.123-.003-12.387-.002-24.774,.014-37.161Z"/><path class="j" d="M322.768,443.705c.007-12.386-.198-24.777,.06-37.158,.322-15.444,10.501-26.052,24.753-26.285,14.161-.232,25.581,10.154,25.925,25.268,.573,25.113,.535,50.256,.046,75.373-.299,15.342-11.272,25.782-25.472,25.789-14.573,.007-25.003-10.935-25.278-26.889-.207-12.029-.041-24.065-.034-36.097Z"/></svg>