<?xml version="1.0" encoding="UTF-8"?><svg id="a" xmlns="http://www.w3.org/2000/svg" xmlns:xlink="http://www.w3.org/1999/xlink" viewBox="0 0 1582.331 362.151"><defs><style>.g{fill:url(#e);}.h{fill:url(#d);}.i{fill:url(#f);}.j{fill:url(#c);}.k{fill:url(#b);}</style><linearGradient id="b" x1="-79.229" y1="234.851" x2="1567.673" y2="234.851" gradientTransform="matrix(1, 0, 0, 1, 0, 0)" gradientUnits="userSpaceOnUse"><stop offset="0" stop-color="#ff036f"/><stop offset="1" stop-color="#ff6028"/></linearGradient><linearGradient id="c" y1="180.604" y2="180.604" xlink:href="#b"/><linearGradient id="d" y1="234.441" y2="234.441" xlink:href="#b"/><linearGradient id="e" y1="231.602" x2="1567.673" y2="231.602" xlink:href="#b"/><linearGradient id="f" y1="234.505" x2="1567.673" y2="234.505" xlink:href="#b"/></defs><path class="k" d="M1465.327,362.122c-27.604-.038-47.624-5.313-66.312-15.808-45.765-25.701-91.607-51.266-137.289-77.112-4.254-2.407-7.195-2.125-11.269,.176-45.158,25.508-90.447,50.785-135.67,76.179-75.58,42.44-168.125-.271-182.808-85.565-13.363-77.628,45.848-149.158,121.933-152.303,23.063-.953,44.155,6.757,64.702,15.991,38.778,17.427,74.131,40.723,109.334,64.238,7.936,5.302,15.925,10.547,23.593,16.217,3.48,2.574,5.842,2.251,9.263-.119,31.55-21.862,63.315-43.41,96.866-62.169,17.756-9.927,35.877-19.114,55.09-25.984,51.816-18.53,96.291-5.445,133.495,32.946,43.217,44.596,48.08,115.284,12.022,163.314-24.613,32.784-58.163,48.93-92.95,49.998Zm-412.087-39.675c13.561,.025,26.435-3.022,38.237-9.596,44.045-24.534,87.95-49.316,131.999-73.842,4.473-2.491,3.5-3.633,.048-5.978-26.776-18.191-53.626-36.264-81.647-52.523-16.882-9.795-34.123-18.912-52.437-25.795-11.677-4.389-23.535-8.323-36.304-7.232-36.331,3.103-67.571,28.438-78.884,63.854-17.801,55.728,21.659,111.245,78.988,111.112Zm405.687-.074c28.349-.778,51.449-12.119,68.151-35.1,25.486-35.066,18.573-86.889-15.755-117.067-25.002-21.98-53.305-29.354-85.4-16.803-9.668,3.78-19.235,7.757-28.503,12.426-37.923,19.104-72.893,42.961-108.004,66.609-4.582,3.086-4.449,4.378,.318,7.03,43.335,24.105,86.548,48.426,129.832,72.622,12.185,6.812,25.301,10.289,39.36,10.283Z"/><path class="j" d="M849.055,321.998c-15.825,18.762-35.246,30.308-58.415,35.813-72.051,17.12-140.782-32.311-148.228-106.688-4.25-42.453,6.037-80.326,37.297-110.763,39.77-38.724,106.344-43.768,149.724-11.871,5.815,4.275,11.051,9.193,15.617,14.85,1.892-1.61,1.185-3.154,1.136-4.457-1.641-44.333-.445-88.684-.957-133.022-.055-4.732,1.304-5.995,5.92-5.848,10.377,.331,20.775,.271,31.156,.022,4.184-.101,5.759,.939,5.755,5.462-.116,115.215-.111,230.431-.01,345.647,.004,4.078-1.163,5.433-5.263,5.329-9.55-.243-19.116-.266-28.664,.009-4.25,.122-5.241-1.5-5.146-5.418,.235-9.683,.077-19.376,.077-29.064Zm-164.858-87.839c-.05,49.511,32.73,85.097,80.139,86.999,37.988,1.524,68.977-20.61,79.391-56.973,4.214-14.715,4.801-29.706,3.042-44.943-6.232-53.984-56.752-85.668-108.096-67.582-33.688,11.866-54.436,43.289-54.476,82.5Z"/><path class="h" d="M254.872,239.775c-30.945,0-61.89,.099-92.833-.102-4.885-.032-6.333,.965-5.612,6.142,5.638,40.477,28.991,67.814,65.065,75.696,38.469,8.405,77.415-6.969,99.558-39.729,3.074-4.547,4.879-5.322,9.248-1.665,6.667,5.581,13.906,10.489,20.982,15.573,2.119,1.523,3.164,2.66,1.372,5.401-52.321,80.017-158.167,73.115-203.571,21.918-32.513-36.662-39.896-79.73-27.51-125.565,24.17-89.448,117.9-106.958,175.145-75.527,31.291,17.181,47.719,45.002,54.886,79.024,2.27,10.774,2.857,21.73,3.524,32.691,.296,4.866-1.189,6.295-6.175,6.259-31.358-.23-62.719-.116-94.079-.116Zm-19.788-32.015c24.278,0,48.556,.009,72.835-.014,2.553-.002,5.597,.88,4.483-3.938-6.509-28.146-21.985-48.537-50.505-56.896-44.087-12.921-87.771,10.748-101.741,54.405-1.575,4.922-1.409,6.664,4.585,6.579,23.443-.332,46.894-.135,70.343-.136Z"/><path class="g" d="M594.677,275.905c0,24.86-.115,49.721,.105,74.58,.04,4.559-1.039,6.178-5.83,6.017-10.373-.348-20.775-.367-31.146,.006-4.893,.176-5.803-1.624-5.789-6.072,.147-45.784,.076-91.568,.102-137.353,.005-8.313-.666-16.553-2.393-24.686-6.085-28.659-28.164-44.533-57.391-41.304-28.192,3.115-44.263,20.412-47.246,51.055-.521,5.351-.674,10.755-.68,16.135-.052,45.163-.1,90.326,.07,135.488,.019,4.962-1.059,6.955-6.463,6.744-10.576-.414-21.181-.219-31.771-.069-3.393,.048-4.707-.886-4.696-4.536,.148-49.72,.017-99.44,.299-149.159,.067-11.809,2.156-23.485,5.889-34.776,11.662-35.275,36.424-54.774,72.902-60.024,14.73-2.12,29.422-1.613,43.971,1.552,36.694,7.982,61.341,34.937,67.747,73.942,1.547,9.421,2.344,18.894,2.328,28.444-.035,21.338-.011,42.677-.011,64.015Z"/><path class="i" d="M.102,264.77c0-26.715-.02-53.43,.009-80.145,.013-11.904,1.756-23.53,6.224-34.632,8.372-20.805,24.665-31.468,46.039-35.559,15.437-2.954,31.049-1.603,46.595-1.929,2.726-.057,3.587,1.115,3.566,3.711-.085,10.354-.148,20.711,.027,31.063,.061,3.604-1.768,3.989-4.641,3.976-8.095-.037-16.202-.137-24.285,.216-20.441,.893-30.444,10.729-30.926,31.148-.459,19.456-.193,38.93-.202,58.397-.018,36.241-.143,72.483,.139,108.722,.044,5.652-1.622,7.005-6.985,6.779-9.948-.42-19.936-.389-29.887-.006-4.855,.187-5.807-1.505-5.775-6.005,.199-28.577,.101-57.157,.101-85.735Z"/></svg>