<?xml version="1.0" encoding="UTF-8"?><svg id="a" xmlns="http://www.w3.org/2000/svg" xmlns:xlink="http://www.w3.org/1999/xlink" viewBox="0 0 941.196 941.214"><defs><style>.f{fill:url(#e);}.g{fill:url(#d);}.h{fill:url(#c);}.i{fill:url(#b);}</style><linearGradient id="b" x1="0" y1="627.314" x2="941.196" y2="627.314" gradientTransform="matrix(1, 0, 0, 1, 0, 0)" gradientUnits="userSpaceOnUse"><stop offset="0" stop-color="#ff036f"/><stop offset="1" stop-color="#ff6028"/></linearGradient><linearGradient id="c" x1="187.714" y1="360.688" x2="313.316" y2="360.688" xlink:href="#b"/><linearGradient id="d" x1="596.404" y1="140.83" x2="721.9" y2="140.83" xlink:href="#b"/><linearGradient id="e" x1="392.128" y1="250.495" x2="517.722" y2="250.495" xlink:href="#b"/></defs><path class="i" d="M145.982,674.962c-33.42-34.427-23.275-80.03,7.129-99.756,5.043-3.272,10.295-6.547,16.22-7.378,15.878-2.226,29.226-10.449,43.222-17.209,19.691-9.511,36.106-5.477,48.718,12.228,2.074,2.911,4.531,4.465,7.648,5.864,15.707,7.049,25.49,19.168,27.931,36.166,.905,6.303,3.245,7.641,8.787,7.319,6.956-.404,14.823,1.743,20.677-.859,6.085-2.704,3.627-11.714,5.575-17.794,7.775-24.271,28.709-41.538,54.001-43.777,3.966-.351,7.962-.513,11.944-.514,91.056-.028,182.113-.181,273.168,.03,69.519,.161,124.955,42.766,141.3,108.015q4.43,17.683,22.514,17.664,12.974-.014,12.983-12.641c.006-100.029-.092-200.059,.069-300.088,.053-33.057,29.125-55.575,59.964-46.981,19.874,5.538,33.325,22.736,33.33,43.228,.048,184.107,.042,368.214,.008,552.321-.003,18.818-11.547,30.245-30.397,30.361-10.634,.065-21.269,.074-31.903-.002-18.104-.129-30.688-12.227-30.962-30.519-.343-22.925-.395-45.865,.056-68.786,.151-7.687-1.863-10.111-9.9-10.104-244.922,.215-489.844,.211-734.767,.013-7.787-.006-10.255,1.982-10.069,9.939,.521,22.253,.294,44.528,.139,66.792-.144,20.745-12.221,32.619-32.876,32.674-8.973,.024-17.945,.01-26.918,.003-23.085-.019-33.549-10.357-33.551-33.21-.007-147.219-.004-294.438-.004-441.658,0-35.559-.052-71.117,.018-106.676,.05-25.643,19.484-45.512,44.973-46.17,25.064-.647,46.464,18.628,48.221,43.631,.395,5.624,.173,11.294,.174,16.943,.008,96.706,.131,193.413-.205,290.118-.031,8.841,2.282,11.497,11.051,11.002,13.125-.741,26.323-.193,41.731-.193Zm465.447,125.562c54.479,0,108.959-.174,163.435,.183,8.42,.055,10.556-2.524,10.444-10.697-.451-32.88,.186-65.776-.279-98.656-.891-62.999-48.995-110.536-111.991-110.716-74.742-.213-149.485,.064-224.226-.228-7.918-.031-9.983,2.209-9.947,10.05,.309,66.436,.368,132.876-.049,199.311-.057,9.03,2.63,10.999,11.17,10.941,53.812-.367,107.628-.186,161.442-.187Zm-360.159-94.361c-49.466,0-98.934,.138-148.399-.153-7.194-.042-9.8,1.539-9.647,9.277,.498,25.221,.426,50.463,.035,75.688-.11,7.109,1.43,9.739,9.202,9.719,98.6-.26,197.202-.236,295.802-.033,7.159,.015,9.891-1.606,9.747-9.342-.469-25.222-.527-50.467,.025-75.686,.183-8.368-3.038-9.653-10.358-9.612-48.801,.274-97.604,.142-146.407,.142ZM30.284,633.158c0,86.051,0,172.102,0,258.152,0,19.633,.024,19.042,19.947,19.85,9.873,.4,11.886-2.712,11.87-12.146-.296-177.084-.217-354.17-.224-531.255,0-2.989,.239-6.029-.212-8.957-1.195-7.761-5.716-12.72-13.618-13.626-8.409-.965-14.219,3.112-16.663,11.048-1.138,3.697-1.058,7.854-1.061,11.803-.053,88.376-.041,176.753-.04,265.129Zm849.042-1.254c0,86.383,0,172.765,0,259.148,0,19.883,.019,19.36,19.619,20.084,9.424,.348,12.235-1.982,12.217-11.863-.324-177.084-.229-354.169-.276-531.253-.001-3.948,.058-8.103-1.082-11.801-2.447-7.939-8.26-12.011-16.667-11.039-7.895,.913-12.45,5.859-13.592,13.636-.478,3.258-.212,6.632-.212,9.953-.008,87.712-.006,175.423-.006,263.135Zm-662.098,26.732v.536c9.966,0,19.935,.166,29.895-.041,13.528-.281,18.775-5.474,19.053-18.715,.175-8.301,.154-16.61,.008-24.911-.224-12.791-3.857-17.158-16.632-19.24-6.532-1.064-12.2-4.008-13.331-10.249-1.942-10.715-6.783-8.716-13.822-5.262-13.88,6.811-27.081,14.759-43.053,17.291-14.715,2.333-24.275,17.423-23.076,31.791,1.256,15.048,12.134,27.262,27.123,28.602,11.194,1,22.55,.197,33.834,.197Zm190.597-31.217c0-13.266,.046-26.532-.037-39.797-.017-2.808,.81-6.347-3.622-6.906-24.119-3.04-42.394,7.729-43.341,30.55-.783,18.872,.022,37.805-.338,56.702-.115,6.029,2.378,7.221,7.648,7.08,10.605-.283,21.234-.369,31.832,.029,6.019,.226,8.183-1.665,7.993-7.864-.407-13.253-.125-26.528-.136-39.794Zm408.651,126.339v23.854c0,23.854-.005,23.632,23.663,23.056,6.136-.149,7.862-2.098,7.776-8.06-.305-21.199-.116-42.405-.116-63.608,0-24.288,.008-24.12-24.536-22.967-5.207,.245-6.926,1.925-6.847,6.976,.213,13.58,.073,27.166,.06,40.749Zm-530.307-78.839c13.743,0,25.661,.034,37.579-.03,2.283-.012,5.086,.067,5.138-3.253,.13-8.296,2.708-17.954-.644-24.55-4.161-8.186-14.846-1.953-22.574-3.189-2.92-.467-7.896-2.146-8.305,3.901-.644,9.541-4.942,17.661-11.194,27.12Z"/><path class="h" d="M313.316,310.201c-.059,11.24-5.713,18.035-14.342,18.725-9.044,.723-15.202-4.978-16.947-15.691-3.309-20.313-14.895-31.455-32.276-31.039-16.447,.393-29.735,13.327-30.464,29.653-.788,17.645,11.769,31.707,30.316,32.85,11.137,.686,21.787,2.434,31.445,8.157,21.927,12.994,33.277,32.331,32.005,57.812-1.272,25.461-14.211,44.068-37.657,54.1-7.577,3.242-10.198,7.121-9.243,14.714,.368,2.926,.153,6.006-.297,8.94-1.247,8.123-8.184,13.951-15.877,13.633-7.763-.321-15.687-6.766-14.519-14.708,2.132-14.503-4.667-20.27-16.678-26.269-19.109-9.543-28.516-27.154-30.859-48.298-1.287-11.613,4.206-19.518,13.841-20.486,9.778-.982,15.988,5.14,17.474,17.227,2.382,19.375,17.421,31.714,35.649,29.25,17.702-2.393,29.57-18.991,26.404-36.928-2.432-13.78-13.845-24.124-28.264-25.173-8.318-.605-16.552-1.42-24.412-4.368-24.456-9.171-40.64-32.297-40.899-58.359-.254-25.454,15.019-48.836,39.296-58.283,6.531-2.542,8.933-5.572,8.095-12.162-.416-3.267-.285-6.661,.041-9.953,.829-8.36,7.119-14.356,15.15-14.231,8.394,.13,15.95,4.83,15.022,12.696-1.97,16.707,7.237,22.658,19.821,29.815,18.48,10.509,27.091,28.536,28.174,48.378Z"/><path class="g" d="M721.899,192.582c-1.236,22.041-13.564,41.649-38.104,52.317-7.09,3.082-9.788,6.485-8.914,13.813,.425,3.566,.245,7.393-.588,10.881-1.952,8.176-7.566,12.518-15.933,12.031-8.338-.484-15.109-5.56-14.092-13.692,1.908-15.257-5.548-21.207-17.972-27.576-18.226-9.343-27.192-26.632-29.672-46.945-1.449-11.867,4.336-20.463,14.077-21.384,9.355-.884,15.702,5.624,17.208,17.645,1.914,15.278,11.006,25.724,24.936,28.648,13.474,2.829,27.025-3.393,33.8-15.518,6.406-11.465,4.708-26.338-4.158-36.159-7.205-7.98-16.6-10.225-26.906-10.818-27.902-1.603-51.037-20.867-57.292-47.301-6.414-27.109,4.968-54.559,28.508-68.75,.284-.171,.551-.42,.86-.496,13.248-3.266,17.937-11.354,16.477-25.051-.948-8.888,5.515-13.965,14.261-14.216,9.569-.275,16.942,4.471,15.944,13.535-1.637,14.859,5.368,20.713,17.47,26.945,18.173,9.358,27.643,26.273,29.848,46.734,1.362,12.64-3.727,20.446-13.544,21.717-9.531,1.234-16.037-5.428-17.786-18.211-2.856-20.871-20.923-33.155-40.123-27.282-14.436,4.416-23.475,17.727-22.199,32.689,1.23,14.413,12.129,25.926,26.681,28.02,6.565,.945,13.317,1.02,19.724,2.567,28.155,6.8,47.639,32.162,47.491,65.856Z"/><path class="f" d="M517.72,201.301c.127,9.563-5.561,16.664-14.102,17.597-8.823,.964-15.725-5.208-17.203-15.383-3.171-21.828-18.359-34.639-36.893-31.119-15.407,2.926-26.614,16.678-26.04,31.953,.623,16.596,13.433,29.763,30.932,30.471,14.441,.584,27.504,4.325,38.913,13.174,37.854,29.36,30.29,88.348-14.009,107.002-7.103,2.991-9.89,6.489-8.794,13.826,.436,2.915,.335,6.024-.147,8.941-1.428,8.654-6.523,13.827-15.481,13.848-8.96,.02-16.131-5.452-15.206-13.704,1.719-15.336-5.971-21.118-18.012-27.708-18.567-10.162-28.089-27.687-29.432-49.089-.674-10.743,4.495-17.646,13.553-18.727,9.511-1.135,15.895,4.631,17.551,15.856,2.809,19.035,14.087,30.371,30.609,30.767,15.394,.369,28.341-9.888,31.572-25.012,3.575-16.734-7.055-33.285-23.888-36.853-3.871-.821-7.907-.886-11.874-1.222-28.187-2.384-51.941-23.632-56.652-50.7-5.099-29.301,9.814-57.9,36.891-69.062,6.87-2.832,10.359-5.989,9.115-13.575-.476-2.904-.285-5.998,.083-8.945,1.104-8.839,7.734-14.697,16.227-14.232,8.991,.493,15.617,5.995,14.644,14.334-1.668,14.306,4.555,20.172,16.603,26.295,20.088,10.208,29.401,28.886,31.037,51.266Z"/></svg>