<?xml version="1.0" encoding="UTF-8"?><svg id="a" xmlns="http://www.w3.org/2000/svg" xmlns:xlink="http://www.w3.org/1999/xlink" viewBox="0 0 479.793 472.295"><defs><style>.n{fill:url(#e);}.o{fill:url(#d);}.p{fill:url(#g);}.q{fill:url(#f);}.r{fill:url(#i);}.s{fill:url(#h);}.t{fill:url(#k);}.u{fill:url(#j);}.v{fill:url(#m);}.w{fill:url(#l);}.x{fill:url(#c);}.y{fill:url(#b);}</style><linearGradient id="b" x1="0" y1="236.147" x2="447.974" y2="236.147" gradientTransform="matrix(1, 0, 0, 1, 0, 0)" gradientUnits="userSpaceOnUse"><stop offset="0" stop-color="#ff036f"/><stop offset="1" stop-color="#ff6028"/></linearGradient><linearGradient id="c" x1="290.513" y1="78.46" x2="455.89" y2="78.46" xlink:href="#b"/><linearGradient id="d" x1="415.193" y1="144.54" x2="463.839" y2="144.54" xlink:href="#b"/><linearGradient id="e" x1="351.313" y1="168.495" x2="400.006" y2="168.495" xlink:href="#b"/><linearGradient id="f" x1="287.24" y1="184.508" x2="336.136" y2="184.508" xlink:href="#b"/><linearGradient id="g" x1="271.583" y1="272.292" x2="288.081" y2="272.292" xlink:href="#b"/><linearGradient id="h" x1="303.52" y1="272.292" x2="320.019" y2="272.292" xlink:href="#b"/><linearGradient id="i" x1="335.458" y1="272.292" x2="351.956" y2="272.292" xlink:href="#b"/><linearGradient id="j" x1="463.121" y1="463.916" x2="479.793" y2="463.916" xlink:href="#b"/><linearGradient id="k" x1="135.943" y1="196.258" x2="184.229" y2="196.258" xlink:href="#b"/><linearGradient id="l" x1="167.726" y1="160.511" x2="184.343" y2="160.511" xlink:href="#b"/><linearGradient id="m" x1="135.788" y1="160.51" x2="152.405" y2="160.51" xlink:href="#b"/></defs><path class="y" d="M215.789,184.749c-4.027,17.484-12.101,32.344-26.724,43.134-2.796,2.063-5.745,4.074-8.913,5.437-3.976,1.71-4.341,4.666-3.809,8.154,.565,3.711,2.819,6.229,6.54,6.483,5.131,.35,10.302,.12,15.455,.131,1.908,.004,2.853-1.44,4.027-2.617,8.707-8.724,18.932-13.554,31.568-13.516,51.893,.156,103.786,.051,155.68,.071,25.452,.01,42.225,16.746,42.27,42.12,.019,10.977-.127,21.957,.068,32.931,.071,3.98-1.038,5.724-5.315,5.54-12.918-.555-11.209,1.494-11.317-11.112-.08-9.313,.06-18.629-.039-27.942-.158-14.788-10.057-24.893-24.778-24.918-52.724-.089-105.448-.086-158.173,0-13.456,.022-23.892,10.112-23.993,23.649-.238,31.932-.231,63.868-.002,95.8,.096,13.361,10.138,23.389,23.495,23.602,18.79,.299,37.588,.029,56.382,.139,3.633,.021,4.741-1.438,4.211-4.838-1.201-7.713-2.264-15.448-3.449-23.164-1.713-11.149,5.438-19.776,16.677-19.92,7.317-.094,14.636-.04,21.954-.019,10.58,.03,15.242,3.438,18.868,13.582,3.581,10.019,7.329,19.98,10.807,30.034,1.098,3.173,2.835,4.411,6.212,4.343,9.144-.184,18.296,.057,27.441-.098,14.166-.239,24.119-10.182,24.329-24.361,.165-11.141,.189-22.29-.029-33.429-.086-4.383,1.105-6.238,5.861-6.139,12.385,.256,10.679-1.377,10.776,10.423,.085,10.311,.092,20.625-.014,30.936-.219,21.413-17.765,38.93-39.192,39.167-7.65,.085-15.305,.156-22.951-.029-3.695-.089-4.672,.737-3.288,4.513,4.804,13.108,9.415,26.291,13.841,39.532,1.09,3.262,3.203,3.232,5.781,3.228,18.462-.027,36.926,.143,55.384-.116,4.953-.069,6.737,1.258,6.53,6.413-.476,11.877,1.238,10.334-10.454,10.337-142.538,.035-285.077,.023-427.615,.022-1.83,0-3.666-.114-5.487,.008-3.203,.215-4.653-1.167-4.367-4.374,.044-.495,0-.997-.007-1.496-.126-10.472-.128-10.63,10.403-10.722,3.544-.031,4.149-1.31,3.791-4.45-1.974-17.325-3.729-34.674-5.724-51.996-.753-6.536-.356-7.229,6.204-7.388,9.999-.242,9.848-.226,10.935,9.899,1.773,16.511,3.871,32.988,5.586,49.504,.395,3.809,2.164,4.646,5.516,4.515,4.65-.183,9.325-.259,13.966,.018,4.184,.249,5.441-1.407,5.407-5.478-.158-19.126-.069-38.254-.069-57.381,0-11.809-.079-23.619,.049-35.426,.035-3.205-.811-5.07-4.04-6.424-7.918-3.321-11.045-8.92-10.009-17.473,.658-5.434,1.815-10.809,2.816-16.199,.609-3.282-.232-5.099-4.002-4.98-5.151,.162-10.315-.086-15.465,.085-6.278,.209-9.302,3.994-8.576,10.18,1.857,15.832,3.587,31.679,5.527,47.501,.468,3.818-.9,5.425-4.625,5.993-11.563,1.765-11.496,1.848-12.758-9.615-1.49-13.535-3.003-27.069-4.651-40.585-2.216-18.17,8.099-30.04,26.292-30.073,5.655-.01,11.314-.135,16.963,.044,3.412,.108,5.223-.933,5.638-4.594,.447-3.948,1.402-7.846,2.268-11.736,2.311-10.371,7.878-18.654,16.674-24.539,2.877-1.925,3.839-4.035,3.802-7.36-.149-13.47-.056-26.944-.063-40.416q-.003-6.576-6.535-6.531c-20.639,.142-36.803-12.508-40.699-32.553-2.763-14.217,1.315-26.757,11.751-36.842,2.691-2.601,3.755-5.101,3.585-8.669-.866-18.136,1.107-35.841,8.193-52.769,4.184-9.994,3.99-9.805,13.821-5.111,4.599,2.196,5.504,4.259,3.179,9.035-6.373,13.089-8.16,27.262-8.607,41.672-.114,3.666,1.084,5.015,4.86,4.86,11.756-.483,10.354,2.034,10.461-10.195,.366-41.735,36.265-76.925,78.066-77.935,39.005-.943,76.123,27.448,81.873,70.25,.616,4.586,.415,9.295,.42,13.947,.002,2.674,.92,3.8,3.767,3.944,12.108,.614,11.98,.301,11.183-12.108-1.427-22.216-8.871-41.834-23.627-58.502-16.722-18.888-37.703-29.708-62.901-31.816-32.21-2.694-58.996,8.493-80.478,32.445-2.693,3.002-4.57,3.463-7.694,.744-9.44-8.218-11.964-5.681-.937-16.585C103.867,2.632,142.495-7.693,185.675,5.756c42.898,13.362,68.094,44.051,77.178,87.939,2.037,9.842,1.362,19.878,1.313,29.843-.015,3.029,.772,5.216,3.132,7.365,12.288,11.186,16.3,29.041,10.255,44.349-6.206,15.717-20.67,25.533-37.601,25.519q-7.667-.006-7.678,7.878c-.002,1.497-.075,2.995-.026,4.49,.083,2.522-1.097,3.697-3.604,3.575-.166-.008-.333,.02-.498,.014-14.52-.515-12.155,1.492-12.341-11.668-.096-6.769-.017-13.541-.017-20.312Zm-24.081,84.967c-1.837,.182-2.31,1.139-2.943,1.864-18.675,21.396-51.328,23.62-70.163,2.757-7.917-8.769-15.583-10.671-25.747-9.738-.495,.045-.998,.002-1.496,.012-11.935,.242-21.47,7.988-23.692,19.636-2.988,15.665-5.623,31.398-8.658,47.054-.76,3.919,.744,4.661,4.09,4.602,6.484-.114,12.981-.232,19.456,.041,4.131,.174,5.453-1.271,5.445-5.408-.021-11.734-2.108-10.549,11.064-10.625,.166,0,.334,.018,.499,0,3.647-.384,5.039,1.232,4.952,4.895-.173,7.314,.129,14.641-.111,21.951-.129,3.942,1.276,5.207,5.178,5.154,13.303-.183,26.611-.122,39.916-.052,12.517,.066,10.494-1.41,10.933,10.901,.156,4.387-1.356,5.796-5.717,5.726-13.635-.221-27.276-.12-40.914-.064-10.391,.043-9.008-1.227-9.422,9.329-.193,4.925,1.553,6.178,6.264,6.12,18.791-.235,37.587-.112,56.382-.09,10.489,.012,9.231-.722,9.281,9.463,.034,7.071,.01,7.088-7.178,7.092-19.626,.01-39.253,.142-58.876-.096-4.702-.057-6.217,1.507-5.844,6.017,.315,3.799,.362,7.674-.009,11.464-.489,4.994,1.63,6.495,6.293,6.041,3.13-.304,6.316-.119,9.474-.029,9.198,.262,15.948,6.996,16.212,16.189,.1,3.49,.261,7.004-.025,10.473-.353,4.281,1.512,5.346,5.509,5.315,20.124-.153,40.25-.153,60.374,0,4.005,.031,5.585-1.059,5.526-5.319-.211-15.132-.158-30.27-.022-45.404,.03-3.278-1.034-5.593-3.394-7.83-8.669-8.214-12.692-18.411-12.662-30.361,.076-30.603,.027-61.206,.028-91.809,0-1.651,0-3.301,0-5.27Zm7.954-107.972c0-5.564,.025-10.049-.006-14.534-.053-7.75-2.436-10.178-10.031-10.338-26.905-.565-52.408-5.918-74.69-22.076-2.013-1.46-3.091-1.156-4.321,.859-2.539,4.161-4.71,8.537-5.132,13.378-1.648,18.876-2.665,37.938,.323,56.61,3.779,23.617,24.81,39.35,48.258,38.225,22.927-1.101,41.508-19.39,44.844-42.326,1.015-6.976,.461-13.922,.755-19.798Zm-110.947-35.597c1.926-8.365,5.218-16.13,10.395-22.983,5.983-7.918,15.703-9.652,23.313-3.591,18.754,14.937,40.787,19.854,63.858,20.549,13.078,.394,23.525,3.441,29.168,16.473-.232-11.613,1.14-23.02-.649-34.409-4.515-28.753-29.726-51.752-58.471-53.182-30.678-1.526-58.042,18.083-65.684,46.846-2.653,9.983-2.173,20.096-1.93,30.297Zm252.583,329.492c5.318,0,10.635,.009,15.953-.002,6.394-.013,6.458-.043,4.373-5.906-8.627-24.255-17.24-48.516-25.991-72.727-1.958-5.418-2.225-12.548-6.727-15.656-4.312-2.977-10.969-.795-16.591-.897-6.605-.12-6.894,.458-5.868,7.24,1.613,10.665,3.084,21.352,4.605,32.031,2.41,16.922,4.858,33.838,7.182,50.772,.515,3.753,2.044,5.471,6.12,5.228,5.63-.335,11.295-.084,16.945-.083ZM71.906,160.41c0-5.977-.102-11.956,.042-17.929,.074-3.05-1.075-4.437-4.135-4.987-6.285-1.129-11.879,.42-16.986,3.879-8.486,5.748-11.998,16.455-8.858,26.371,3.013,9.518,12.264,16.35,22.155,16.362,6.518,.008,7.774-1.236,7.787-7.758,.01-5.313,.002-10.625-.005-15.938Zm160.343-.195c0,4.979-.002,9.958,0,14.937,.004,7.918,2.666,10.142,10.55,8.678,1.947-.362,3.895-.885,5.743-1.595,11.455-4.4,17.398-17.082,13.641-28.956-3.498-11.051-15.514-18.163-26.144-15.731-2.843,.65-3.861,1.958-3.811,4.741,.106,5.973,.032,11.949,.022,17.924ZM72.563,434.216c3.102-5.04,6.038-8.645,10.623-9.642,4.3-.935,4.793-3.36,4.763-7.087-.147-18.258-.008-36.518-.084-54.777-.049-11.705,1.625-10.01-10.343-10.298-3.539-.085-5.044,.912-5.025,4.745,.128,25.225,.066,50.452,.066,77.059Zm15.872-247.38c0,19.013-.006,38.026,.01,57.039,.002,1.828-.097,4.078,2.473,4.089,10.44,.047,20.893,.162,31.316-.303,3.393-.152,5.231-3.207,5.614-6.709,.329-3.011-.178-5.292-3.403-6.856-19.907-9.656-31.391-25.799-36.011-47.259Zm63.73,54.076c-5.232-1.468-7.84,.329-8.796,5.881-1.019,5.919-4.692,10.598-9.866,13.745-2.961,1.801-2.675,3.046-.214,5.035,10.112,8.169,27.318,8.209,37.512,.047,2.304-1.845,3.138-3.131-.05-5.035-5.199-3.105-8.84-7.78-9.941-13.693-.992-5.328-3.254-7.648-8.643-5.979Zm72.006,190.249c0,6.304,.224,12.619-.077,18.909-.208,4.35,1.279,6.234,5.668,5.653,.978-.13,1.988-.018,2.984-.017,12.152,.004,12.193-.008,8.97-11.867-2.913-10.72-6.02-21.387-8.851-32.128-1.005-3.814-3.88-3.77-6.635-3.628-3.225,.167-1.955,2.972-1.998,4.664-.156,6.135-.061,12.275-.061,18.414Zm-120.125,24.433v.017c1.657,0,3.314,.034,4.97-.005,12.217-.287,10.648,2.403,10.828-11.254,.04-2.997-1.138-4.155-4.112-4.088-5.464,.123-10.933,.028-16.4,.027-11.899-.001-11.836-.006-10.837,11.761,.211,2.491,1.12,3.603,3.623,3.561,3.975-.067,7.951-.018,11.927-.018Zm158.072-.906l1.426-.074c0-2.025,.06-4.053-.013-6.076-.14-3.896,.144-8.023,2.504-10.96,4.173-5.194,3.279-10.318,1.389-15.786-.486-1.407-.863-2.853-1.266-4.287q-2.679-9.52-12.649-9.151c-.331,.012-.664,.03-.994,.01-2.651-.16-3.057,1.124-2.398,3.409,1.467,5.089,2.773,10.225,4.202,15.326,2.578,9.203,5.197,18.394,7.799,27.589Zm28.652,.922v-.026c2.478,0,4.956-.027,7.433,.008,2.22,.032,3.21-.889,3.351-3.23,.603-10.048-1.368-12.227-11.264-12.069-.826,.013-1.66-.03-2.475,.072-5.355,.671-7.907,4.655-7.688,11.305,.204,6.195,4.83,3.232,7.678,3.904,.939,.222,1.974,.035,2.965,.035Zm-2.482-47.247c-1.769,1.381-5.828-1.94-6.09,1.614-.307,4.169,1.196,8.664,3.445,12.276,1.796,2.884,5.536,1.022,8.395,1.354,2.379,.276,3.335-.81,2.817-3.268-.375-1.778-.565-3.613-.644-5.43-.217-5.008-2.082-7.96-7.923-6.545Z"/><path class="x" d="M426.536,25.111c-5.414,0-10.179-.109-14.936,.038-3.21,.099-4.434-1.192-4.39-4.395,.204-14.818-1.581-12.051,11.433-12.268,9.145-.152,18.296-.077,27.443-.007,6.854,.052,9.69,2.877,9.73,9.737,.067,11.31-.079,22.621,.073,33.929,.049,3.612-1.144,5.041-4.869,4.965-14.107-.287-11.565,1.554-11.843-11.404-.052-2.427-.007-4.856-.007-7.453-2.343,.481-3.17,2.048-4.293,3.167-16.375,16.32-32.785,32.607-49.017,49.068-4.507,4.57-9.503,6.821-15.979,6.573-8.138-.312-16.303,.117-24.444-.159-3.787-.128-6.114,1.212-8.246,4.253-10.406,14.842-21.119,29.47-31.448,44.365-2.554,3.683-4.429,3.819-7.903,1.273-9.212-6.75-9.349-6.63-2.58-16.145,9.93-13.958,19.987-27.825,29.834-41.841,4.182-5.952,9.504-8.837,16.887-8.566,8.637,.317,17.295,.037,25.944,.094,2.413,.016,4.485-.334,6.329-2.188,16.893-16.978,33.855-33.887,50.783-50.83,.426-.426,.695-1.009,1.499-2.207Z"/><path class="o" d="M463.819,145.053c.001,15.462,.045,30.925-.014,46.387-.042,10.918-6.451,17.235-17.434,17.319-4.987,.038-9.977,.085-14.963-.02-9.221-.194-16.118-6.915-16.144-16.107-.092-32.088-.098-64.177,.004-96.265,.03-9.38,6.709-15.833,16.147-16.022,5.152-.103,10.308-.071,15.462-.014,10.251,.114,16.868,6.627,16.92,16.839,.081,15.961,.022,31.922,.023,47.883Zm-31.96-1.032c0,12.953-.043,25.906,.014,38.859,.045,10.346-1.237,8.915,9.364,9.347,5.009,.204,6.068-1.698,6.035-6.313-.188-26.403-.047-52.807-.112-79.211-.027-10.967,1.513-9.444-9.855-9.832-4.566-.156-5.592,1.598-5.525,5.802,.217,13.78,.082,27.565,.081,41.348Z"/><path class="n" d="M351.354,168.384c-.002-7.979-.097-15.959,.023-23.936,.142-9.447,6.617-15.985,15.983-16.189,5.649-.123,11.306-.146,16.954,.015,8.74,.249,15.475,6.856,15.564,15.617,.167,16.455,.178,32.914-.009,49.368-.1,8.741-6.873,15.231-15.697,15.461-5.648,.147-11.305,.142-16.954,.004-8.905-.218-15.673-6.983-15.831-15.905-.144-8.143-.031-16.29-.033-24.435Zm16.63,.13c0,4.478-.056,8.956,.011,13.433,.172,11.486-1.81,9.911,10.403,10.253,4.167,.117,5.025-1.63,4.965-5.317-.169-10.445,.043-20.896-.084-31.343-.147-12.071,2.177-10.465-10.886-10.724-3.637-.072-4.534,1.521-4.452,4.793,.159,6.298,.046,12.603,.043,18.905Z"/><path class="q" d="M311.916,208.763c-19.086,1.502-25.952-6.077-24.484-24.316,.253-3.138-.079-6.321,.111-9.467,.485-8.013,6.812-14.394,14.851-14.727,6.138-.254,12.301-.232,18.442-.02,8.419,.291,14.921,6.967,15.18,15.49,.172,5.645,.14,11.301,.021,16.949-.197,9.351-6.764,15.839-16.145,16.075-2.657,.067-5.318,.01-7.977,.015Zm-.472-16.609q8.007,.005,8.016-7.124,.01-8.25-7.37-8.255-8.001-.005-8.01,7.119-.01,8.256,7.364,8.261Z"/><path class="p" d="M288.08,272.689q-.005,7.855-8.397,7.852-8.109-.003-8.101-8.645,.007-7.867,8.893-7.852,7.609,.013,7.604,8.645Z"/><path class="s" d="M320.019,272.733q-.005,7.812-8.441,7.808-8.066-.004-8.057-8.689,.008-7.824,8.937-7.808,7.567,.014,7.561,8.689Z"/><path class="r" d="M351.955,272.548q-.005,8.004-8.752,7.993-7.75-.01-7.745-8.504,.005-8.004,8.752-7.993,7.75,.01,7.745,8.504Z"/><path class="u" d="M479.793,464.158c-.003,8.099-.003,8.124-8.575,8.089-9.039-.037-8.034,.644-8.085-9.066-.04-7.61,0-7.61,9.062-7.598q7.601,.01,7.598,8.575Z"/><path class="t" d="M144.983,184.163c3.583-.448,6.907-.018,9.475,4.658,2.742,4.993,8.822,4.117,12.171-.997,2.024-3.091,13.469-5.323,16.477-3.184,1.489,1.059,1.137,2.642,.939,4.095-1.52,11.117-12.121,19.965-23.904,19.987-11.82,.022-22.316-8.668-24.063-19.834-.473-3.026,.192-4.911,3.71-4.738,1.49,.073,2.986,.012,5.195,.012Z"/><path class="w" d="M175.952,168.819q-8.229-.001-8.226-8.515,.003-8.106,8.639-8.101,7.985,.005,7.977,8.764-.007,7.854-8.39,7.852Z"/><path class="v" d="M152.405,160.686q-.003,8.138-8.608,8.133-8.016-.005-8.009-8.732,.007-7.898,8.857-7.885,7.762,.011,7.759,8.484Z"/></svg>