<svg id="Camada_1" data-name="Camada 1" xmlns="http://www.w3.org/2000/svg" xmlns:xlink="http://www.w3.org/1999/xlink" viewBox="0 0 792.865 792.844"><defs><style>.cls-1{fill:url(#Gradiente_sem_nome_30);}.cls-2{fill:url(#Gradiente_sem_nome_30-2);}</style><linearGradient id="Gradiente_sem_nome_30" y1="396.422" x2="792.865" y2="396.422" gradientUnits="userSpaceOnUse"><stop offset="0.005" stop-color="#ff006c"/><stop offset="1" stop-color="#ff622c"/></linearGradient><linearGradient id="Gradiente_sem_nome_30-2" x1="232.065" y1="396.481" x2="560.708" y2="396.481" xlink:href="#Gradiente_sem_nome_30"/></defs><path class="cls-1" d="M395.989,792.844C179.291,793.106.283,615.056,0,398.974-.289,177.934,176.536.132,396.783,0,614.139-.131,792.774,178.306,792.865,395.642,792.957,615.113,615.637,792.578,395.989,792.844ZM73.491,396.669c2.381,180.621,143.985,322.1,322.529,322.22,180.569.119,323.239-143.548,322.859-323.186C718.5,216.18,576.053,73.883,396.362,73.974,216.228,74.066,75.53,216.8,73.491,396.669Z"/><path class="cls-2" d="M524.166,560.806c-11.234.2-20.059-4.611-27.737-12.307-30.936-31.013-62.082-61.818-92.763-93.08-5.748-5.857-8.884-5.643-14.518.09q-46.346,47.164-93.431,93.6c-18.615,18.431-47.077,14.45-59.285-7.913-7.782-14.254-5.068-31.56,7.373-44.074q46.326-46.6,92.884-92.962c7.713-7.717,7.714-7.729,0-15.443-31.164-31.182-62.513-62.181-93.435-93.6-20.093-20.418-11.543-54.167,15.416-61.466,14.4-3.9,27.017-.153,37.711,10.618,30.863,31.084,62.055,61.843,92.756,93.086,5.619,5.719,8.754,5.984,14.517.112,30.88-31.461,62.177-62.512,93.393-93.641,10.165-10.137,22.38-13.8,36.284-9.872,13.845,3.915,22.7,13.246,26,27.206,3.325,14.07-1.352,25.85-11.462,35.915q-45.966,45.765-91.745,91.717c-7.636,7.638-7.634,7.649.145,15.434,31.16,31.185,62.54,62.155,93.408,93.626,20.126,20.52,11.395,53.978-15.585,61.438C530.892,560.177,527.481,560.319,524.166,560.806Z"/></svg>